<?xml version="1.0" standalone="no"?>
<!DOCTYPE svg PUBLIC "-//W3C//DTD SVG 20010904//EN"
 "http://www.w3.org/TR/2001/REC-SVG-20010904/DTD/svg10.dtd">
<svg version="1.0" xmlns="http://www.w3.org/2000/svg"
 width="642.678207pt" height="382.825466pt" viewBox="0 0 642.678207 382.825466"
 preserveAspectRatio="xMidYMid meet">
<metadata>
Created by potrace 1.12, written by Peter Selinger 2001-2015
</metadata>
<g transform="translate(-338.572477,613.825466) scale(0.100000,-0.100000)"
fill="#000000" stroke="none">
<path d="M5978 6125 c-70 -19 -126 -55 -194 -126 -118 -124 -149 -198 -163
-396 -6 -76 -15 -154 -21 -173 -5 -19 -10 -63 -10 -98 0 -57 3 -67 29 -93 24
-24 38 -29 76 -29 95 0 144 61 96 121 -55 71 -75 191 -51 311 25 127 127 279
215 319 52 24 138 24 190 0 82 -38 136 -101 176 -206 6 -16 15 -89 19 -160 8
-146 21 -185 71 -211 53 -27 120 3 140 63 15 45 6 152 -21 253 -24 91 -24 90
-4 90 21 0 229 -105 342 -173 258 -155 514 -415 588 -597 32 -78 42 -126 59
-285 8 -73 20 -166 25 -207 13 -93 1 -135 -68 -242 -49 -75 -52 -82 -52 -145
0 -36 9 -115 21 -176 28 -149 30 -311 5 -387 -18 -57 -19 -58 -56 -58 -46 0
-157 33 -222 66 -26 13 -72 44 -102 69 l-56 45 -16 -25 c-23 -35 -13 -63 46
-132 36 -42 51 -69 56 -100 13 -85 -16 -130 -103 -163 -197 -74 -497 59 -649
286 -42 65 -73 142 -74 189 -1 26 -2 28 -11 12 -13 -23 -5 -102 21 -192 29
-100 77 -190 130 -239 74 -69 238 -144 353 -160 47 -7 53 -12 39 -32 -16 -24
-54 -34 -132 -34 -106 0 -182 20 -306 80 -160 77 -181 102 -358 409 -17 29
-70 91 -119 137 -80 76 -140 120 -336 243 -39 24 -89 62 -112 85 -77 75 -201
286 -245 416 -15 44 -19 85 -19 205 0 130 3 159 23 218 12 38 33 85 46 105 36
60 38 62 28 62 -12 0 -104 -116 -141 -178 -52 -89 -72 -165 -78 -294 -9 -192
24 -316 123 -455 82 -115 252 -242 504 -378 177 -95 272 -170 340 -270 15 -22
57 -99 93 -170 78 -154 124 -205 231 -258 80 -41 222 -76 302 -77 114 0 225
64 240 138 6 28 11 32 53 38 25 3 83 24 128 45 45 21 86 39 91 39 5 0 38 -15
72 -32 53 -28 74 -33 127 -32 60 1 64 0 70 -25 22 -93 51 -114 218 -155 92
-23 133 -46 120 -67 -3 -4 -33 -7 -68 -7 -79 0 -130 -14 -190 -52 -62 -39 -80
-81 -75 -172 3 -49 9 -75 26 -97 12 -17 22 -35 22 -41 0 -8 -41 -9 -137 -5
-130 6 -613 39 -733 50 -184 18 273 -74 595 -119 277 -39 675 -71 675 -55 0 3
-7 12 -15 19 -26 21 -5 33 47 27 31 -4 80 -23 132 -51 152 -83 230 -109 326
-110 68 -1 95 4 136 22 93 42 156 129 174 238 12 73 12 94 1 94 -5 0 -11 -19
-15 -42 -15 -93 -89 -199 -166 -238 -109 -56 -264 -26 -461 91 -27 15 -81 38
-120 50 -62 19 -83 21 -158 14 -47 -5 -103 -8 -123 -8 -74 2 -135 65 -118 124
15 50 21 53 47 25 13 -14 33 -26 43 -26 26 0 26 17 0 25 -30 10 -35 49 -11 90
30 51 5 44 -50 -15 -26 -27 -50 -50 -53 -50 -13 0 -5 63 10 90 29 48 67 63
168 64 50 1 116 -3 146 -8 l55 -9 -33 37 c-18 20 -30 41 -27 47 4 5 41 9 83 9
77 0 239 26 256 41 5 4 -25 8 -66 7 -110 0 -201 11 -308 37 -52 13 -123 29
-158 35 -91 16 -110 27 -138 84 -24 47 -24 51 -8 63 32 23 67 16 97 -22 46
-57 77 -68 155 -55 37 6 94 12 127 13 l60 2 -55 28 c-44 21 -69 27 -123 27
-138 0 -209 78 -143 157 39 47 42 77 11 108 -24 25 -28 26 -48 12 -19 -12 -23
-26 -27 -97 l-5 -83 -42 -16 c-23 -8 -46 -12 -50 -8 -10 10 21 206 39 247 21
47 36 112 43 190 8 83 35 140 91 189 55 48 197 123 279 147 81 24 241 24 314
1 94 -30 263 -128 334 -195 53 -51 49 -67 -20 -84 -50 -12 -58 -17 -58 -37 0
-14 11 -32 27 -44 26 -20 28 -20 112 -2 73 15 91 16 131 5 60 -17 95 -58 95
-111 0 -73 -43 -126 -145 -177 -33 -16 -70 -41 -81 -53 -33 -36 -64 -92 -64
-114 1 -18 3 -17 21 8 40 53 55 53 108 4 57 -54 111 -75 336 -132 197 -49 270
-80 395 -165 104 -72 174 -144 231 -240 54 -92 69 -144 79 -272 8 -113 18
-138 55 -138 36 0 58 63 57 165 -1 244 -123 437 -380 603 -131 84 -321 147
-542 177 -114 16 -200 46 -208 73 -2 7 22 24 60 41 93 43 145 106 155 191 8
69 -3 115 -40 157 -39 45 -82 63 -172 74 -60 8 -73 13 -90 36 -74 105 -201
209 -324 267 -64 30 -71 31 -202 31 l-136 0 -41 37 c-57 51 -77 60 -141 61
-105 1 -162 -52 -192 -179 -20 -85 -34 -109 -45 -78 -4 10 -15 41 -26 67 -34
89 -21 136 62 232 132 152 138 230 49 602 -21 87 -26 129 -20 146 5 13 34 61
63 108 72 112 100 180 105 259 8 129 -40 170 -202 170 -93 0 -349 -24 -387
-36 -10 -3 -64 28 -140 79 -168 115 -265 170 -417 236 -126 54 -132 58 -188
126 -127 152 -282 212 -435 170z m1450 -636 c128 -28 164 -83 127 -190 -20
-55 -73 -139 -89 -139 -7 0 -35 33 -62 73 -27 39 -91 113 -141 163 -51 50 -93
93 -93 97 0 18 169 16 258 -4z m380 -1359 c23 -10 42 -25 41 -32 -1 -15 -236
-135 -245 -125 -13 12 31 113 62 145 38 38 77 42 142 12z m-408 -778 c0 -55
-4 -92 -12 -100 -35 -35 -191 13 -204 63 -10 41 22 67 131 106 86 31 85 32 85
-69z"/>
<path d="M5525 5964 c-267 -56 -491 -126 -682 -214 -35 -17 -66 -30 -68 -30
-4 0 -200 -109 -240 -133 -328 -199 -599 -462 -847 -822 -106 -154 -323 -532
-301 -524 6 2 51 59 101 126 233 313 490 594 750 822 167 145 254 208 483 345
292 175 554 306 774 385 135 49 136 50 90 49 -22 0 -49 -2 -60 -4z"/>
<path d="M6490 4751 c0 -6 9 -39 21 -73 31 -93 65 -137 159 -205 67 -49 107
-92 151 -167 37 -62 56 -67 77 -23 34 71 37 205 5 254 -17 26 -97 65 -168 82
-75 19 -166 65 -208 107 -20 21 -37 32 -37 25z"/>
<path d="M4576 4063 c15 -60 78 -212 125 -303 146 -278 383 -521 703 -720 124
-77 497 -259 466 -227 -3 2 -54 34 -115 70 -375 222 -820 645 -1054 1002 -36
55 -77 124 -90 153 -26 56 -46 70 -35 25z"/>
<path d="M7561 3738 c1 -66 18 -129 37 -136 22 -7 45 46 39 94 -4 43 -45 104
-69 104 -4 0 -8 -28 -7 -62z"/>
<path d="M7887 3492 c-32 -32 -54 -61 -51 -65 4 -4 33 -7 65 -7 32 0 90 -5
128 -12 57 -10 75 -9 106 3 21 8 40 19 42 24 5 16 -38 38 -92 47 -29 4 -68 20
-93 38 -23 16 -44 30 -45 30 -1 0 -28 -26 -60 -58z"/>
</g>
</svg>
