<?xml version="1.0" encoding="UTF-8"?>
<svg version="1.1" xmlns="http://www.w3.org/2000/svg" width="1512" height="1720">
<path d="M0 0 C14.8035617 12.71046432 24.6462969 28.36204352 33.65380859 45.45336914 C36.76165154 51.23272295 40.35103803 56.48968128 44.27294922 61.74511719 C44.88984619 62.57696533 45.50674316 63.40881348 46.14233398 64.26586914 C49.99632984 69.41073964 53.94376364 74.33373511 58.36279297 79.00683594 C60.14731144 80.9075256 61.83823668 82.84220406 63.53076172 84.82324219 C68.07561383 90.03718574 72.96760971 94.90224327 77.86547852 99.78051758 C79.45753888 101.36721665 81.04417912 102.95919461 82.63037109 104.55175781 C88.08969892 110.01465442 93.64188737 115.29679648 99.52294922 120.30761719 C101.13063294 121.76207236 102.73534636 123.21982614 104.33544922 124.68261719 C107.79825004 127.81184545 111.32973925 130.81262068 114.96044922 133.74511719 C119.74299909 137.61286146 124.27357986 141.69622626 128.79638672 145.86230469 C131.34911132 148.15171099 133.96392776 150.29999591 136.64794922 152.43261719 C143.89969391 158.29177933 150.55847521 164.78050943 157.3046875 171.20703125 C159.49814381 173.28412767 161.70795888 175.34198871 163.92529297 177.39355469 C164.98937378 178.3804126 164.98937378 178.3804126 166.07495117 179.38720703 C167.40805906 180.62218838 168.74363773 181.85451082 170.08227539 183.08349609 C174.55372524 187.24005511 178.54963812 191.67818331 182.52294922 196.30761719 C194.05045355 209.58037704 194.05045355 209.58037704 208.52294922 219.30761719 C209.56451172 219.83484375 210.60607422 220.36207031 211.67919922 220.90527344 C236.19301925 232.34693026 264.42905382 231.64303863 290.890625 232.33666992 C310.48810581 232.86599714 330.17048682 233.68740947 349.02294922 239.55761719 C350.02213379 239.86135254 351.02131836 240.16508789 352.05078125 240.47802734 C366.73457564 245.09483897 380.43986308 251.54240933 388.58544922 265.28808594 C393.19710932 275.2223704 392.81505643 286.30183856 389.64794922 296.62011719 C384.383597 310.678162 376.92605073 323.63629348 367.85009766 335.55664062 C366.45307861 337.39980115 365.08407088 339.26154256 363.71826172 341.12792969 C357.98931054 348.91753729 352.00114254 356.44275557 345.81396484 363.87231445 C340.54335119 370.22305524 335.51946134 376.74206968 330.54638672 383.32714844 C328.68706478 385.78884377 326.80504242 388.22561428 324.87451172 390.63183594 C312.05392522 406.74856692 299.715164 424.24933773 300.89794922 445.49511719 C300.94177734 446.37103516 300.98560547 447.24695313 301.03076172 448.14941406 C301.25356815 452.52817936 301.49718196 456.90448342 301.77685547 461.2800293 C302.53358865 473.35273097 302.76554413 485.39985315 302.77294922 497.49511719 C302.77396133 498.99789719 302.77396133 498.99789719 302.7749939 500.53103638 C302.74808019 525.86487891 301.16198951 550.73177061 294.52294922 575.30761719 C294.30799805 576.10409668 294.09304688 576.90057617 293.87158203 577.72119141 C289.18601752 594.44984737 281.52142908 610.60109306 269.52294922 623.30761719 C269.0661377 623.80390625 268.60932617 624.30019531 268.13867188 624.81152344 C261.32600698 632.17363326 254.00660294 638.42501928 245.98217773 644.42773438 C226.95961049 658.6716132 210.71456322 674.45240913 207.109375 699.13964844 C206.56917072 703.42923104 206.07391345 707.72006728 205.64941406 712.02270508 C205.13296138 717.0614904 204.4584085 721.75179363 203.01904297 726.61230469 C200.1618853 737.38091524 200.47635949 748.95089571 200.01708984 760.02563477 C199.41293584 774.08206567 197.75029036 786.8619643 193.52294922 800.30761719 C194.31048584 799.67815186 195.09802246 799.04868652 195.90942383 798.40014648 C208.66060382 788.30523078 221.75770715 782.06895369 238.28857422 783.77636719 C253.71025718 786.30939724 264.180146 796.40063205 275.14013672 806.78808594 C299.97311247 830.00151979 327.6063005 838.08663417 360.33203125 843.79785156 C402.96224566 851.29431665 433.4714214 876.7274238 459.12988281 910.47753906 C460.53940723 912.32923815 461.96235525 914.17006424 463.38623047 916.01074219 C472.65061994 928.08130627 481.05420027 940.74000966 489.24560547 953.55761719 C502.83050371 974.68850395 521.45523102 987.853844 542.11767578 1001.57104492 C564.38855349 1016.39379363 587.49439214 1032.56548644 594.11010742 1060.14233398 C594.81596853 1063.84445235 594.99157825 1067.54819851 595.14794922 1071.30761719 C595.18662109 1072.08234375 595.22529297 1072.85707031 595.26513672 1073.65527344 C595.35816279 1075.53905134 595.44158097 1077.42329974 595.52294922 1079.30761719 C603.32448947 1068.96209642 610.39948468 1058.12458646 617.52294922 1047.30761719 C618.07144531 1046.47520508 618.61994141 1045.64279297 619.18505859 1044.78515625 C638.77812634 1014.98985165 657.23387984 984.4968515 674.52294922 953.30761719 C675.10850586 952.25687012 675.6940625 951.20612305 676.29736328 950.12353516 C684.23291172 935.84082036 691.57545366 921.53652062 697.52294922 906.30761719 C697.80041992 905.60475586 698.07789063 904.90189453 698.36376953 904.17773438 C728.07926544 827.85544341 734.34278029 727.50304624 703.66357422 630.89648438 C694.65388062 610.44725687 683.60164493 591.85293375 668.52294922 575.30761719 C667.79849609 574.50066406 667.07404297 573.69371094 666.32763672 572.86230469 C650.08754373 555.66338702 628.10335714 545.55111394 604.52099609 544.32885742 C594.04586559 544.03376533 584.11250312 545.83219747 574.02294922 548.37011719 C561.88704314 551.41173247 549.96943208 551.83985466 537.52294922 550.30761719 C538.67388644 546.85480553 539.84354852 545.92679556 542.58544922 543.62011719 C543.31892578 542.9975 544.05240234 542.37488281 544.80810547 541.73339844 C545.37400391 541.26289062 545.93990234 540.79238281 546.52294922 540.30761719 C539.39604024 540.57314682 532.26917419 540.83980844 525.14233398 541.10717773 C522.72893178 541.1975943 520.31552061 541.28777216 517.90209961 541.37768555 C504.57703965 541.87428886 491.25325597 542.38176672 477.93321228 543.00059509 C471.45765147 543.29433705 465.0058075 543.43309186 458.52294922 543.30761719 C457.19684818 538.26843325 457.19684818 538.26843325 457.52294922 535.30761719 C459.0480957 533.34301758 459.0480957 533.34301758 461.01904297 531.53027344 C461.66929443 530.92062744 462.3195459 530.31098145 462.98950195 529.68286133 C463.49553955 529.22903076 464.00157715 528.7752002 464.52294922 528.30761719 C463.6833667 528.32332764 462.84378418 528.33903809 461.97875977 528.35522461 C436.71613633 528.76477668 413.39962933 528.20162227 390.71044922 515.74511719 C390.02184814 515.36919434 389.33324707 514.99327148 388.6237793 514.60595703 C384.82360102 512.41426649 383.54880553 511.35932981 381.52294922 507.30761719 C385.97794922 504.83261719 385.97794922 504.83261719 390.52294922 502.30761719 C390.19294922 501.31761719 389.86294922 500.32761719 389.52294922 499.30761719 C387.06491544 498.29390252 384.6701833 497.43726737 382.14794922 496.62011719 C365.53514475 490.75407104 353.69708022 477.86648576 342.99951172 464.28417969 C339.23829332 459.76359859 335.15184827 455.55006984 331.04272461 451.34521484 C330.45740967 450.73468262 329.87209473 450.12415039 329.26904297 449.49511719 C328.73980225 448.95242188 328.21056152 448.40972656 327.6652832 447.85058594 C326.52294922 446.30761719 326.52294922 446.30761719 326.52294922 443.30761719 C329.16294922 442.31761719 331.80294922 441.32761719 334.52294922 440.30761719 C331.12676737 433.93977622 327.36604567 428.12315356 323.09716797 422.29980469 C321.20966937 418.71215227 321.15620928 416.30752744 321.52294922 412.30761719 C322.52294922 411.30761719 322.52294922 411.30761719 324.31713867 411.3034668 C334.21962734 412.16862043 343.94469722 414.0716052 353.71044922 415.87011719 C355.53914489 416.20324099 357.36792038 416.53592689 359.19677734 416.86816406 C363.63977123 417.67626855 368.08164227 418.49029444 372.52294922 419.30761719 C372.29478516 418.69273437 372.06662109 418.07785156 371.83154297 417.44433594 C371.54408203 416.63609375 371.25662109 415.82785156 370.96044922 414.99511719 C370.67041016 414.19460938 370.38037109 413.39410156 370.08154297 412.56933594 C369.52294922 410.30761719 369.52294922 410.30761719 370.52294922 407.30761719 C371.35020508 407.45908203 372.17746094 407.61054688 373.02978516 407.76660156 C376.10805909 408.32848813 379.18688378 408.88722353 382.26611328 409.44384766 C383.59707086 409.68510396 384.92780362 409.92760404 386.25830078 410.17138672 C388.17404132 410.52217628 390.09067448 410.86807986 392.00732422 411.21386719 C393.15942383 411.42333984 394.31152344 411.6328125 395.49853516 411.84863281 C398.67222841 412.40764505 398.67222841 412.40764505 402.52294922 412.30761719 C399.05794922 404.88261719 399.05794922 404.88261719 395.52294922 397.30761719 C405.19417101 393.43912847 413.88470547 395.52757737 423.64794922 398.24511719 C436.67437461 402.26029406 436.67437461 402.26029406 449.89794922 400.99511719 C450.71005859 400.73085938 451.52216797 400.46660156 452.35888672 400.19433594 C454.75468879 399.29598583 454.75468879 399.29598583 457.52294922 397.30761719 C463.12447212 397.6219748 468.22439317 399.9605187 473.38623047 401.99902344 C474.35392365 402.3758577 475.32161682 402.75269196 476.31863403 403.14094543 C479.49304656 404.37859696 482.66421244 405.62435361 485.83544922 406.87011719 C488.05081243 407.73540872 490.26639113 408.60014872 492.48217773 409.46435547 C498.10133155 411.65735249 503.71797485 413.85669842 509.3338623 416.05804443 C516.70025087 418.9443999 524.07050341 421.8208739 531.44042969 424.69818115 C533.95795048 425.68164106 536.47486415 426.66664217 538.99169922 427.65185547 C546.95350082 430.76567679 554.92401703 433.85259459 562.92138672 436.87402344 C606.92897436 453.50038879 651.0493664 475.07747652 681.74951172 512.16699219 C683.1651993 513.8757957 684.62936657 515.54439791 686.10888672 517.19824219 C700.21925016 533.02354656 711.52615807 550.65627573 721.52294922 569.30761719 C721.9932959 570.18111816 722.46364258 571.05461914 722.94824219 571.95458984 C749.17220827 621.1528141 761.37122884 677.13221926 766.52294922 732.30761719 C766.61721191 733.21334473 766.71147461 734.11907227 766.80859375 735.05224609 C769.47783725 763.83137051 769.42987645 794.8063295 764.52294922 823.30761719 C764.31895508 824.52143066 764.11496094 825.73524414 763.90478516 826.98583984 C751.96249187 896.47538486 722.80369295 962.83131887 687.21875 1023.40771484 C685.66638699 1026.06233157 684.13414049 1028.72769237 682.60868835 1031.39784241 C673.18658729 1047.87724624 663.13050183 1063.78783576 652.4453125 1079.47607422 C650.34730485 1082.56633237 648.28240276 1085.67686928 646.22680664 1088.79541016 C641.18334364 1096.43987222 635.90732808 1103.90110083 630.52294922 1111.30761719 C629.99685059 1112.0349707 629.47075195 1112.76232422 628.92871094 1113.51171875 C621.22542483 1124.14906041 613.26933412 1134.50282747 604.90380859 1144.62695312 C603.04075377 1146.89450429 601.21857586 1149.19343066 599.39794922 1151.49511719 C595.03865413 1156.95791585 590.51683081 1162.28015417 585.98046875 1167.59570312 C584.52956551 1169.2998461 583.08625712 1171.01018055 581.64404297 1172.72167969 C575.26959524 1180.25831955 568.66497891 1187.5359684 561.89404297 1194.71777344 C558.89540099 1197.89912534 555.95536781 1201.12766315 553.02294922 1204.37011719 C548.94407568 1208.84604921 544.71317378 1213.12273122 540.39794922 1217.37011719 C535.59464314 1222.10801109 531.23523478 1226.97206835 527.05419922 1232.27636719 C523.75561512 1236.22652345 520.2073682 1239.90570787 516.64794922 1243.62011719 C511.27998719 1249.2410101 506.25078081 1254.95305077 501.53955078 1261.13232422 C497.63326588 1266.24155733 493.45408496 1271.07689626 489.2175293 1275.91357422 C486.08515743 1279.49409398 483.0154282 1283.10812394 480.02294922 1286.80761719 C475.42742898 1292.47850596 470.6431417 1297.97511855 465.85107422 1303.47949219 C462.70353163 1307.09496212 459.57779543 1310.72860181 456.46044922 1314.37011719 C455.9702832 1314.94205811 455.48011719 1315.51399902 454.97509766 1316.10327148 C452.47486643 1319.02199105 449.98001339 1321.94513693 447.49169922 1324.87402344 C441.78074677 1331.58485164 435.96252593 1338.16600455 429.97998047 1344.63574219 C427.35517163 1347.49006531 424.79856244 1350.39476766 422.25732422 1353.32324219 C418.72792955 1357.36137842 415.1159667 1361.32616538 411.52294922 1365.30761719 C410.80107422 1366.11199219 410.07919922 1366.91636719 409.33544922 1367.74511719 C403.90234263 1373.79915024 398.41622593 1379.80316765 392.91259766 1385.79296875 C391.57456251 1387.25136124 390.24008914 1388.71301912 388.90576172 1390.17480469 C381.83671573 1397.91509539 374.67855431 1405.56907549 367.49658203 1413.20458984 C365.53930161 1415.29019271 363.58896768 1417.38208836 361.64013672 1419.47558594 C353.83202064 1427.8443446 345.88581128 1436.04246503 337.72485352 1444.06884766 C337.01756104 1444.76768066 336.31026855 1445.46651367 335.58154297 1446.18652344 C334.96593506 1446.79052979 334.35032715 1447.39453613 333.71606445 1448.0168457 C331.83249321 1449.98428965 330.05176201 1451.99222173 328.27294922 1454.05322266 C324.50879699 1458.38147986 320.52497019 1462.4500784 316.46435547 1466.49902344 C315.71637192 1467.24796371 314.96838837 1467.99690399 314.19773865 1468.76853943 C312.62662458 1470.34032944 311.05426529 1471.91087567 309.48071289 1473.48022461 C307.09195076 1475.86363022 304.70857476 1478.25232787 302.32568359 1480.64160156 C300.78889472 1482.17772956 299.25179562 1483.71354727 297.71435547 1485.24902344 C297.01202286 1485.95338028 296.30969025 1486.65773712 295.58607483 1487.38343811 C291.62283274 1491.32824145 287.55278984 1495.07965071 283.31993103 1498.73301697 C280.99671975 1500.76872427 278.81480488 1502.91952156 276.64794922 1505.12011719 C275.80748047 1505.96832031 274.96701172 1506.81652344 274.10107422 1507.69042969 C273.25029297 1508.55410156 272.39951172 1509.41777344 271.52294922 1510.30761719 C266.2503966 1515.66005696 260.97032282 1520.89628982 255.26513672 1525.78808594 C252.90056893 1527.8504556 250.71107882 1530.06034895 248.52294922 1532.30761719 C245.03548961 1535.88933247 241.3933626 1539.19356686 237.61962891 1542.46484375 C234.21783324 1545.45468465 230.93756161 1548.57051638 227.64794922 1551.68261719 C221.67663459 1557.30600782 215.64681065 1562.8502985 209.52294922 1568.30761719 C207.81410726 1569.84872006 206.10578021 1571.39039405 204.39794922 1572.93261719 C199.07612403 1577.71896461 193.70782387 1582.44426479 188.26513672 1587.09277344 C187.05938246 1588.12269198 185.85365399 1589.15264072 184.64794922 1590.18261719 C184.03943115 1590.70227051 183.43091309 1591.22192383 182.80395508 1591.75732422 C179.26671064 1594.78654252 175.77902345 1597.85910302 172.33544922 1600.99511719 C168.19516804 1604.75228793 163.90899428 1608.28548358 159.56201172 1611.79980469 C156.05237903 1614.69592832 152.63256771 1617.68421042 149.21044922 1620.68261719 C143.84232273 1625.3764961 138.35820584 1629.85841274 132.71630859 1634.21777344 C128.59904787 1637.41546639 124.63812026 1640.75574514 120.71044922 1644.18261719 C114.98197798 1649.16705768 109.04264086 1653.80565269 102.98291016 1658.37915039 C98.05409672 1662.10796767 93.23410986 1665.94508124 88.46044922 1669.87011719 C81.30362702 1675.74456455 73.99085313 1681.39889379 66.48564148 1686.82278442 C64.52128265 1688.26409376 64.52128265 1688.26409376 62.81491089 1689.85115051 C57.15129445 1694.75205307 52.33130238 1695.29441173 44.99951172 1695.38574219 C43.34923477 1695.42281281 43.34923477 1695.42281281 41.6656189 1695.46063232 C39.34109603 1695.49964466 37.01624566 1695.52220797 34.69140625 1695.52929688 C31.18799429 1695.55729714 27.69924045 1695.69172599 24.19873047 1695.83105469 C9.63440724 1696.11370424 0.93636587 1693.81393943 -9.82519531 1683.83154297 C-10.45701721 1683.21788879 -11.08883911 1682.60423462 -11.73980713 1681.97198486 C-13.92141414 1679.88189451 -16.2586358 1678.06790157 -18.68017578 1676.26464844 C-22.25943935 1673.48411244 -25.83645244 1670.7006998 -29.41210938 1667.91552734 C-30.72440165 1666.8936833 -32.0371726 1665.87245348 -33.35058594 1664.85205078 C-42.56161271 1657.69299799 -51.58470936 1650.32183445 -60.5703125 1642.88232422 C-63.11264153 1640.7827055 -65.66949986 1638.70115207 -68.22705078 1636.62011719 C-72.74628302 1632.92941086 -77.20117309 1629.16739739 -81.64648438 1625.38842773 C-85.01613149 1622.52856308 -88.41762934 1619.71480429 -91.85205078 1616.93261719 C-97.55506418 1612.28908959 -103.09691058 1607.4702131 -108.64111328 1602.63964844 C-111.71240498 1599.96527886 -114.80519327 1597.31759089 -117.90698242 1594.67871094 C-123.99332143 1589.49784061 -129.93703745 1584.19082252 -135.80517578 1578.76464844 C-138.66219017 1576.13736473 -141.5700458 1573.57872028 -144.50048828 1571.03417969 C-152.10732763 1564.38947022 -159.52542207 1557.53061021 -166.96240234 1550.69726562 C-168.42079483 1549.35923048 -169.88245272 1548.02475711 -171.34423828 1546.69042969 C-177.19314079 1541.34874908 -183.00457848 1535.96850352 -188.78955078 1530.55761719 C-189.44729492 1529.94370117 -190.10503906 1529.32978516 -190.78271484 1528.69726562 C-193.89603334 1525.77902115 -196.96343879 1522.83268329 -199.95751953 1519.79199219 C-202.2861025 1517.44207502 -204.67981111 1515.23430989 -207.19395447 1513.08482361 C-211.48090636 1509.35334556 -215.5143383 1505.41134276 -219.52612305 1501.38793945 C-220.28657928 1500.62923553 -221.04703552 1499.87053162 -221.83053589 1499.08883667 C-224.32068172 1496.6030591 -226.80719038 1494.11368048 -229.29345703 1491.62402344 C-231.03630733 1489.88184762 -232.77930597 1488.13982021 -234.52244568 1486.39793396 C-238.1660867 1482.75576311 -241.80792356 1479.1118004 -245.44848633 1475.46655273 C-250.10077391 1470.80856831 -254.75753682 1466.15508805 -259.41566563 1461.5029459 C-263.01295805 1457.90927747 -266.60785238 1454.31321773 -270.20203972 1450.71644402 C-271.91760934 1449.00021021 -273.63391408 1447.28471091 -275.35098457 1445.56997871 C-277.75555079 1443.16796927 -280.15685905 1440.76274773 -282.55737305 1438.35668945 C-283.2583461 1437.65774063 -283.95931915 1436.95879181 -284.68153381 1436.23866272 C-288.59055884 1432.31300658 -292.32101005 1428.28777888 -295.92515469 1424.07981777 C-298.31162953 1421.35456308 -300.884543 1418.834829 -303.47705078 1416.30761719 C-307.46543084 1412.37371135 -311.26868136 1408.36829314 -314.90283203 1404.10058594 C-316.52472268 1402.2533209 -318.22365284 1400.53005005 -319.97705078 1398.80761719 C-322.27031114 1396.54963776 -324.44133106 1394.24765215 -326.53955078 1391.80761719 C-330.03817275 1387.748268 -333.68722995 1383.8411457 -337.35205078 1379.93261719 C-342.79906007 1374.11994555 -348.17161066 1368.25010828 -353.47705078 1362.30761719 C-355.01829529 1360.59890298 -356.55996608 1358.89057318 -358.10205078 1357.18261719 C-361.32528332 1353.60248693 -364.51104196 1349.99318955 -367.67236328 1346.35839844 C-369.70663219 1344.04672922 -371.77927388 1341.77230289 -373.85205078 1339.49511719 C-376.98127905 1336.03231636 -379.98205427 1332.50082715 -382.91455078 1328.87011719 C-385.99041666 1325.06674216 -389.16458244 1321.40679067 -392.47705078 1317.80761719 C-396.59083987 1313.33776599 -400.44792375 1308.71716826 -404.26220703 1303.99121094 C-406.43337905 1301.36053162 -408.67946435 1298.82819294 -410.97705078 1296.30761719 C-414.84238424 1292.06110033 -418.49103324 1287.67748609 -422.10205078 1283.21386719 C-424.64369845 1280.10369306 -427.24291191 1277.04853098 -429.85205078 1273.99511719 C-433.65325553 1269.53706956 -437.32307666 1264.99851171 -440.91455078 1260.37011719 C-444.64298872 1255.56604022 -448.49084623 1250.89993008 -452.47705078 1246.30761719 C-457.40315854 1240.62711754 -462.09108705 1234.7989341 -466.70361328 1228.86230469 C-469.54499799 1225.20621493 -472.44731202 1221.60091806 -475.35205078 1217.99511719 C-480.20840144 1211.9538485 -484.93006581 1205.81831027 -489.61889648 1199.64648438 C-493.19129643 1194.95580966 -496.83549892 1190.33232647 -500.53955078 1185.74511719 C-506.14518568 1178.79002845 -511.5119752 1171.67381255 -516.83935547 1164.50439453 C-518.58846326 1162.15817033 -520.34798395 1159.82004567 -522.10986328 1157.48339844 C-529.829068 1147.2413171 -537.42328175 1136.92105749 -544.89746094 1126.49902344 C-546.4585918 1124.33322581 -548.03369651 1122.17837451 -549.61376953 1120.02636719 C-557.7954326 1108.85736633 -565.49518183 1097.40239956 -573.12695312 1085.85253906 C-575.72541054 1081.92691775 -578.34507448 1078.01558259 -580.96533203 1074.10449219 C-632.67354831 996.89925194 -683.76624346 912.59210176 -732.89172363 486.3550415 C-730.77792972 475.91830073 -728.23490375 465.59137189 -725.47705078 455.30761719 C-725.20812012 454.29844238 -724.93918945 453.28926758 -724.66210938 452.24951172 C-716.78676603 423.26728486 -703.90907407 397.50169281 -687.13720703 372.75683594 C-683.37583966 367.19283199 -679.75766146 361.54380912 -676.16455078 355.87011719 C-675.57665771 354.94424805 -674.98876465 354.01837891 -674.38305664 353.06445312 C-671.9022383 349.15324355 -669.42992451 345.23737704 -666.98486328 341.30371094 C-661.6878239 332.83305906 -655.77228393 325.0456548 -649.47705078 317.30761719 C-648.72552734 316.37304688 -647.97400391 315.43847656 -647.19970703 314.47558594 C-644.98025917 311.73438722 -642.73575278 309.01655878 -640.47705078 306.30761719 C-639.83461426 305.53562988 -639.83461426 305.53562988 -639.17919922 304.74804688 C-627.62727506 290.91711552 -615.1888918 277.9466731 -602.47705078 265.18261719 C-601.70031006 264.40120361 -600.92356934 263.61979004 -600.12329102 262.81469727 C-595.96331073 258.66634328 -591.72423117 254.67988957 -587.25244141 250.86865234 C-585.41218691 249.25058479 -583.69430284 247.55522471 -581.97705078 245.80761719 C-579.64943253 243.4403813 -577.26453218 241.21337191 -574.74658203 239.04980469 C-570.61003618 235.4542137 -566.63417618 231.71029819 -562.66455078 227.93261719 C-557.28456508 222.846981 -551.8320129 218.01683182 -546.03955078 213.40527344 C-543.31558119 211.17543858 -540.74369893 208.828076 -538.16455078 206.43261719 C-532.48714438 201.22030905 -526.50952414 196.50703273 -520.40771484 191.81005859 C-518.43115323 190.27189975 -516.48003444 188.70560618 -514.53173828 187.13183594 C-490.52874836 167.87650451 -464.22144454 151.58584364 -436.47705078 138.30761719 C-435.83977051 137.99937012 -435.20249023 137.69112305 -434.54589844 137.37353516 C-424.93682838 132.73095074 -415.19942045 128.4040857 -405.4206543 124.1328125 C-395.96528846 119.99052746 -386.56376547 115.7344323 -377.16497803 111.46569824 C-357.86547215 102.70184078 -338.49446727 94.11404361 -319.07066345 85.62965393 C-313.29461118 83.10577766 -307.52476672 80.5681555 -301.75830078 78.02246094 C-283.65577626 70.03582006 -265.51212022 62.15108117 -247.32257366 54.36445522 C-243.04945874 52.53520837 -238.77775567 50.70269596 -234.5065918 48.86889648 C-224.60225463 44.61960144 -214.69808954 40.3765556 -204.73095703 36.27636719 C-191.88458567 30.96621446 -180.79777076 25.72721018 -170.47705078 16.30761719 C-168.38588737 14.59606617 -166.25014454 12.94690933 -164.10205078 11.30761719 C-163.30432251 10.69708496 -163.30432251 10.69708496 -162.49047852 10.07421875 C-113.87162818 -26.87581633 -50.65156193 -42.333278 0 0 Z M-165.53955078 77.81933594 C-188.98176465 105.11961865 -200.64872631 138.61811694 -200.78955078 174.30761719 C-200.79383087 175.05795227 -200.79811096 175.80828735 -200.80252075 176.58135986 C-200.83470304 187.43472821 -200.13422435 197.79735275 -197.81225586 208.44433594 C-195.89045548 217.52768129 -196.01263832 226.3814717 -199.97705078 234.93261719 C-200.42048828 235.91488281 -200.86392578 236.89714844 -201.32080078 237.90917969 C-202.02987493 239.38002945 -202.74681997 240.84715557 -203.47705078 242.30761719 C-206.40803535 242.96497792 -209.26182983 243.4916848 -212.22705078 243.93261719 C-213.51953735 244.12827271 -213.51953735 244.12827271 -214.83813477 244.32788086 C-228.90350357 246.33759382 -243.27542129 246.58955223 -255.47705078 238.30761719 C-262.31004985 231.84863491 -264.48922007 223.72991552 -264.88012695 214.55957031 C-265.35913054 184.96326359 -251.72667899 156.51621338 -239.47705078 130.30761719 C-238.96706543 129.21465332 -238.45708008 128.12168945 -237.93164062 126.99560547 C-230.43640854 111.00720605 -222.45933168 95.32977995 -213.93017578 79.87011719 C-213.32681396 78.77127197 -212.72345215 77.67242676 -212.10180664 76.5402832 C-210.90961453 74.37255898 -209.71009654 72.20884493 -208.50268555 70.04956055 C-207.96442139 69.07124268 -207.42615723 68.0929248 -206.87158203 67.08496094 C-206.38536377 66.210896 -205.89914551 65.33683105 -205.39819336 64.4362793 C-205.09421631 63.7338208 -204.79023926 63.0313623 -204.47705078 62.30761719 C-204.80705078 61.64761719 -205.13705078 60.98761719 -205.47705078 60.30761719 C-254.20141472 77.86509886 -302.3842388 96.71898734 -349.47705078 118.30761719 C-350.63076172 118.83564941 -351.78447266 119.36368164 -352.97314453 119.90771484 C-359.96978865 123.11646008 -366.94926504 126.36004637 -373.91503906 129.63525391 C-376.33583824 130.77181829 -378.75811034 131.9043185 -381.18359375 133.03076172 C-396.31816405 140.06703738 -410.83419708 147.55760378 -424.86865234 156.64257812 C-429.59966481 159.66256175 -434.4207118 162.53468331 -439.22705078 165.43261719 C-448.76234835 171.21643926 -458.16877246 177.16600458 -467.47705078 183.30761719 C-468.18603516 183.77345215 -468.89501953 184.23928711 -469.62548828 184.71923828 C-492.46945111 199.74361508 -514.94291247 215.45130667 -536.47705078 232.30761719 C-537.59286162 233.17620258 -538.70874888 234.04468981 -539.82470703 234.91308594 C-557.45473261 248.66339581 -557.45473261 248.66339581 -574.31689453 263.33105469 C-576.35820494 265.19887217 -578.43893701 267.0070911 -580.53955078 268.80761719 C-588.44283102 275.74669724 -595.14199966 283.20549716 -601.53564453 291.51855469 C-604.0189131 294.74221291 -606.58091264 297.89214493 -609.17041016 301.03076172 C-616.98773576 310.51480904 -624.29371347 320.33760109 -631.47705078 330.30761719 C-631.90469727 330.89607422 -632.33234375 331.48453125 -632.77294922 332.09082031 C-656.94243312 365.4378199 -675.2205267 403.80035864 -689.47705078 442.30761719 C-689.93176758 443.5211084 -690.38648438 444.73459961 -690.85498047 445.98486328 C-705.31106915 484.73507161 -716.75599227 524.98351814 -720.47705078 566.30761719 C-720.56986328 567.31405273 -720.66267578 568.32048828 -720.75830078 569.35742188 C-721.62668657 579.91761338 -721.72032298 590.4668003 -721.72705078 601.05761719 C-721.72772552 602.02059723 -721.72840027 602.98357727 -721.72909546 603.97573853 C-721.70896263 622.22605093 -720.72352927 640.19867513 -718.47705078 658.30761719 C-718.39455078 658.97651978 -718.31205078 659.64542236 -718.22705078 660.33459473 C-708.92919608 734.76660365 -684.61234685 807.32408974 -653.47705078 875.30761719 C-652.99041962 876.3704895 -652.99041962 876.3704895 -652.49395752 877.45483398 C-638.9079194 907.06869741 -624.45602033 936.25087734 -608.12353516 964.45605469 C-606.35810743 967.51361634 -604.61197082 970.58170451 -602.86767578 973.65136719 C-594.96868869 987.50989014 -586.74086877 1001.12017305 -578.19677734 1014.58984375 C-576.62076143 1017.08050377 -575.0575858 1019.57853893 -573.50048828 1022.08105469 C-546.06033265 1066.080412 -515.79875271 1108.49059848 -484.30908203 1149.66650391 C-480.22850084 1155.00241953 -476.18088962 1160.36072737 -472.16455078 1165.74511719 C-464.13751899 1176.48219274 -455.79727491 1186.95010106 -447.32202148 1197.33569336 C-443.74309614 1201.72779312 -440.21584594 1206.15615853 -436.72705078 1210.62011719 C-432.06080053 1216.58664829 -427.29660699 1222.46390529 -422.47705078 1228.30761719 C-421.39339746 1229.63027175 -420.31008936 1230.9532092 -419.22705078 1232.27636719 C-413.12185067 1239.72555927 -406.96639921 1247.12130075 -400.671875 1254.41137695 C-397.65227219 1257.91462371 -394.69996126 1261.46240424 -391.78955078 1265.05761719 C-388.2349275 1269.43845021 -384.51206454 1273.62439521 -380.71142578 1277.79199219 C-378.46523512 1280.32092014 -376.34173861 1282.91811633 -374.22705078 1285.55761719 C-369.56813488 1291.31996053 -364.54377363 1296.69253725 -359.47705078 1302.09277344 C-356.67187824 1305.08536052 -353.96091032 1308.14722279 -351.28173828 1311.25292969 C-348.4152943 1314.51645682 -345.45953561 1317.69822511 -342.5168457 1320.89282227 C-340.02563789 1323.6023252 -337.5653671 1326.33030784 -335.16455078 1329.12011719 C-330.62830013 1334.35091339 -325.85156788 1339.36205196 -321.11767578 1344.41308594 C-317.73552089 1348.02388598 -314.38526174 1351.66308674 -311.03955078 1355.30761719 C-307.49657345 1359.16358245 -303.89666029 1362.93668071 -300.15307617 1366.59863281 C-298.48412441 1368.30040446 -296.94540881 1370.06523472 -295.40283203 1371.88183594 C-291.00500041 1376.93746041 -286.2484181 1381.6074643 -281.47705078 1386.30761719 C-279.74539499 1388.01342737 -278.01618652 1389.72172585 -276.28955078 1391.43261719 C-275.53287109 1392.17769531 -274.77619141 1392.92277344 -273.99658203 1393.69042969 C-272.00321376 1395.7610603 -270.12168643 1397.85618076 -268.24829102 1400.03198242 C-264.1433869 1404.75862642 -259.75537976 1409.17312249 -255.32470703 1413.59277344 C-254.46574326 1414.45269394 -253.60677948 1415.31261444 -252.7217865 1416.19859314 C-250.91528063 1418.0057758 -249.10752616 1419.81171111 -247.29858398 1421.61645508 C-244.54768268 1424.36200112 -241.80215857 1427.11284264 -239.05712891 1429.86425781 C-237.29247547 1431.62825038 -235.52751181 1433.39193269 -233.76220703 1435.15527344 C-232.95050552 1435.96899918 -232.13880402 1436.78272491 -231.30250549 1437.62110901 C-227.07634636 1441.83013725 -222.768734 1445.86641676 -218.24900818 1449.75804138 C-215.85510621 1451.85150739 -213.61498296 1454.07428551 -211.38330078 1456.33886719 C-210.49771484 1457.2321875 -209.61212891 1458.12550781 -208.69970703 1459.04589844 C-206.88460286 1460.88704427 -205.0694987 1462.7281901 -203.25439453 1464.56933594 C-198.72344015 1469.13986197 -194.15227144 1473.55688473 -189.26416016 1477.74316406 C-186.53322953 1480.13384759 -184.00922548 1482.71002941 -181.47705078 1485.30761719 C-177.56451482 1489.27425484 -173.58143882 1493.05346869 -169.33642578 1496.66699219 C-166.66691382 1499.02244392 -164.19898068 1501.55990408 -161.72705078 1504.12011719 C-159.78014852 1506.01293883 -157.7925813 1507.79451476 -155.74267578 1509.57324219 C-151.4627598 1513.29094904 -147.3383935 1517.15538218 -143.22705078 1521.05761719 C-136.36816014 1527.54022821 -129.45108905 1533.94921816 -122.47705078 1540.30761719 C-121.45970754 1541.24075743 -120.44278877 1542.17436063 -119.42626953 1543.10839844 C-113.99438671 1548.09932296 -108.53832755 1553.0613271 -103.04736328 1557.98730469 C-100.13276551 1560.61841574 -97.24171301 1563.2742002 -94.35205078 1565.93261719 C-90.43386323 1569.53488159 -86.48107681 1573.08892455 -82.45751953 1576.57324219 C-80.16571923 1578.58026257 -77.91708326 1580.6316457 -75.66455078 1582.68261719 C-72.2447575 1585.7739852 -68.75746554 1588.7322075 -65.16455078 1591.62011719 C-60.3527993 1595.50888108 -55.83269534 1599.63376432 -51.3203125 1603.85888672 C-47.05068297 1607.8343214 -42.60821226 1611.53758992 -38.05517578 1615.18652344 C-35.62294438 1617.18758654 -33.33508873 1619.27754047 -31.03955078 1621.43261719 C-14.82519405 1636.12607242 10.03585255 1656.60188028 33.08544922 1658.12011719 C48.23218861 1656.98872964 62.05749759 1647.92278641 72.75341797 1637.87011719 C75.35321798 1635.46466047 78.01591724 1633.21708074 80.77294922 1630.99511719 C87.17377416 1625.82172317 93.36386814 1620.41840407 99.56591797 1615.01025391 C101.51587824 1613.31376901 103.47147035 1611.62403472 105.42919922 1609.93652344 C111.10549189 1605.04079275 116.75354781 1600.13013525 122.27294922 1595.05761719 C125.844618 1591.77827249 129.49721658 1588.6622496 133.27294922 1585.62011719 C137.03442852 1582.58425659 140.50009007 1579.44971811 143.85888672 1575.97949219 C146.24959576 1573.57755916 148.80697361 1571.38907405 151.37060547 1569.17480469 C158.05151207 1563.37902727 164.55099751 1557.37607559 171.06323242 1551.39233398 C174.17856186 1548.53217151 177.31112328 1545.69277075 180.46044922 1542.87011719 C185.97424479 1537.92003235 191.4120788 1532.88942147 196.84960938 1527.85595703 C199.03376701 1525.83495795 201.2202161 1523.81645416 203.40771484 1521.79907227 C204.47940216 1520.80951093 205.54972999 1519.81847513 206.61865234 1518.82592773 C209.45973025 1516.19118268 212.32455582 1513.59011086 215.22998047 1511.02636719 C215.83326172 1510.48753906 216.43654297 1509.94871094 217.05810547 1509.39355469 C218.21808825 1508.35849312 219.38578179 1507.33199039 220.56201172 1506.31542969 C222.3344557 1504.76831936 222.3344557 1504.76831936 224.52294922 1502.30761719 C224.52294922 1500.98761719 224.52294922 1499.66761719 224.52294922 1498.30761719 C219.65750166 1495.92454083 216.01968593 1494.29988212 210.52294922 1495.30761719 C207.66817888 1497.12868795 205.0169253 1499.14255152 202.32373047 1501.19433594 C191.61231216 1509.27645212 181.85040065 1509.40920362 168.98388672 1507.88964844 C158.19796227 1505.60363869 150.39304071 1498.78030923 141.88818359 1492.12841797 C138.32505445 1489.38545584 134.65066669 1486.8130876 130.96044922 1484.24511719 C124.92949193 1480.01662923 118.93194253 1475.74471073 112.96044922 1471.43261719 C112.23462646 1470.90917725 111.50880371 1470.3857373 110.76098633 1469.84643555 C108.67724086 1468.33943891 106.59930099 1466.82478033 104.52294922 1465.30761719 C103.82057129 1464.7994043 103.11819336 1464.29119141 102.39453125 1463.76757812 C98.4337852 1460.86259846 94.93316388 1457.86318526 91.52294922 1454.30761719 C89.50474562 1452.36559835 87.45346045 1450.46003211 85.39794922 1448.55761719 C84.83027832 1448.03176025 84.26260742 1447.50590332 83.67773438 1446.96411133 C80.18321409 1443.75502728 76.60922292 1440.70453803 72.89794922 1437.74511719 C71.10023598 1436.27330518 69.30864988 1434.79398074 67.52294922 1433.30761719 C66.54841797 1432.50324219 65.57388672 1431.69886719 64.56982422 1430.87011719 C56.43294287 1423.5599778 53.75693855 1416.67589302 51.52294922 1406.30761719 C51.28060547 1405.31761719 51.03826172 1404.32761719 50.78857422 1403.30761719 C46.02899061 1379.63833652 48.82319055 1353.93336072 61.40576172 1333.20605469 C74.73397362 1314.0501226 93.66953632 1303.39770749 116.24609375 1298.71435547 C123.27467779 1297.45876668 130.41315475 1296.89494804 137.52294922 1296.30761719 C138.36404021 1293.05957432 139.19445578 1289.80889415 140.02294922 1286.55761719 C140.26142578 1285.63722656 140.49990234 1284.71683594 140.74560547 1283.76855469 C140.97119141 1282.87910156 141.19677734 1281.98964844 141.42919922 1281.07324219 C141.63867188 1280.25629883 141.84814453 1279.43935547 142.06396484 1278.59765625 C142.65396133 1276.04321415 142.65396133 1276.04321415 142.52294922 1272.30761719 C141.03830544 1270.92907777 141.03830544 1270.92907777 138.96435547 1269.93261719 C138.19438232 1269.51117432 137.42440918 1269.08973145 136.63110352 1268.65551758 C135.7910376 1268.21071045 134.95097168 1267.76590332 134.08544922 1267.30761719 C105.47902758 1251.43842016 77.82183701 1229.58359588 67.52294922 1197.30761719 C62.9400689 1180.80039019 66.24379154 1162.65315708 69.36157227 1146.18945312 C70.09708167 1142.18308489 70.66075512 1138.21261297 71.03076172 1134.15527344 C73.00021909 1113.0641421 78.31597053 1092.79086079 83.52294922 1072.30761719 C83.72160583 1071.52304138 83.92026245 1070.73846558 84.12493896 1069.93011475 C85.36172939 1065.0503385 86.62078263 1060.17698804 87.89794922 1055.30761719 C88.20692139 1054.12337158 88.51589355 1052.93912598 88.83422852 1051.71899414 C90.434414 1045.76248281 92.3161623 1040.11287508 94.68847656 1034.42138672 C95.69126384 1031.8812661 96.26029018 1029.44635838 96.64794922 1026.74511719 C96.79748047 1025.73835938 96.94701172 1024.73160156 97.10107422 1023.69433594 C97.40695875 1021.23876287 97.6887097 1018.78784501 97.94482422 1016.32714844 C99.94929539 997.13227911 105.86070285 980.77196604 113.09106445 962.92919922 C114.32959109 959.79666655 115.5072279 956.65254666 116.66169739 953.48880005 C119.76802053 944.99924057 123.36101772 936.8107231 127.18777466 928.62353516 C128.95352128 924.8407032 130.69533093 921.04688871 132.43701172 917.25292969 C132.78383499 916.49772034 133.13065826 915.74251099 133.48799133 914.9644165 C136.77763127 907.78361963 139.97186176 900.56661146 143.08544922 893.30761719 C143.55619873 892.22883301 144.02694824 891.15004883 144.51196289 890.03857422 C144.92937744 889.0548584 145.34679199 888.07114258 145.77685547 887.05761719 C146.14109619 886.20683594 146.50533691 885.35605469 146.88061523 884.47949219 C147.7917926 882.16031851 147.7917926 882.16031851 146.52294922 879.30761719 C143.30370106 880.53238378 140.08813456 881.76506411 136.87841797 883.01464844 C134.97482988 883.74816143 133.06450991 884.46593256 131.13623047 885.13183594 C129.07215468 885.82743759 129.07215468 885.82743759 126.52294922 887.30761719 C125.80991449 889.85072358 125.80991449 889.85072358 125.52294922 892.30761719 C119.70953611 893.87570888 113.88850479 895.25439974 107.97998047 896.40917969 C77.40426643 902.39744822 53.92553943 913.41343198 35.52294922 939.30761719 C34.50277345 940.87802664 33.49793388 942.45875842 32.52294922 944.05761719 C30.52294922 947.30761719 30.52294922 947.30761719 27.52294922 949.30761719 C25.44848633 949.50292969 25.44848633 949.50292969 23.05029297 949.43261719 C22.15955078 949.41553711 21.26880859 949.39845703 20.35107422 949.38085938 C19.39716797 949.35668945 18.44326172 949.33251953 17.46044922 949.30761719 C-14.6561337 948.93930775 -36.49359178 959.76297322 -63.21533203 976.44042969 C-81.4639344 987.75995543 -81.4639344 987.75995543 -89.60205078 990.62011719 C-90.285979 990.8652002 -90.96990723 991.1102832 -91.67456055 991.36279297 C-118.62085974 1000.7900139 -146.26941059 992.28825136 -171.16455078 980.55761719 C-211.40170414 961.03680695 -243.29944101 930.45689244 -258.61035156 887.83398438 C-263.40168765 873.8675771 -265.52029422 859.37299402 -267.86386108 844.84768677 C-274.97430032 800.90867432 -293.09541185 759.3827908 -324.09814453 726.82714844 C-326.03923018 724.77131881 -327.89064152 722.68303358 -329.73486328 720.54199219 C-333.61286285 716.08877946 -337.72906662 711.90799747 -341.91455078 707.74511719 C-342.98286133 706.67100586 -342.98286133 706.67100586 -344.07275391 705.57519531 C-348.71022515 700.94614817 -353.50323223 696.57098438 -358.47705078 692.30761719 C-359.46447266 691.43878906 -360.45189453 690.56996094 -361.46923828 689.67480469 C-367.59291847 684.38089146 -373.87620961 679.49497011 -380.47705078 674.80761719 C-388.16576795 669.33842301 -395.44199107 663.59259126 -402.47705078 657.30761719 C-403.0379541 656.80842773 -403.59885742 656.30923828 -404.17675781 655.79492188 C-410.68412406 649.97532605 -416.97374527 644.10581812 -422.47705078 637.30761719 C-423.38849363 636.20864601 -424.2999536 635.10968903 -425.21142578 634.01074219 C-463.54653467 587.37309319 -483.67884166 527.87701505 -483.72705078 467.68261719 C-483.72772552 466.91816284 -483.72840027 466.1537085 -483.72909546 465.36608887 C-483.64551309 405.25239887 -462.76256268 348.27481641 -421.47705078 304.30761719 C-420.98495117 303.78151855 -420.49285156 303.25541992 -419.98583984 302.71337891 C-402.56233316 284.23891361 -381.67986264 270.38641365 -359.47705078 258.30761719 C-362.17863967 262.53157949 -365.07608033 266.23494521 -368.41455078 269.99511719 C-379.3019173 282.58607574 -388.25254236 296.86894727 -396.47705078 311.30761719 C-397.12931641 312.43554688 -397.78158203 313.56347656 -398.45361328 314.72558594 C-416.45907214 346.63274643 -427.22519432 383.90371764 -430.47705078 420.30761719 C-430.64140625 421.850625 -430.64140625 421.850625 -430.80908203 423.42480469 C-437.05117756 491.50525993 -416.99315716 565.0885952 -373.47705078 618.30761719 C-372.77580078 619.19964844 -372.07455078 620.09167969 -371.35205078 621.01074219 C-361.32757639 633.61504455 -350.04019191 644.88217898 -338.24267578 655.80761719 C-330.50818551 662.97350948 -323.20437521 670.32691235 -316.63720703 678.59667969 C-315.25977639 680.32531778 -313.853363 682.03151945 -312.41064453 683.70605469 C-285.68686219 714.90840829 -269.81108696 752.62272762 -261.12451172 792.36279297 C-251.50019279 836.13675033 -235.65563117 874.57010778 -204.47705078 907.30761719 C-203.81189453 908.025625 -203.14673828 908.74363281 -202.46142578 909.48339844 C-178.45983499 934.64472997 -141.99347807 950.91816367 -107.47705078 953.30761719 C-102.62191171 953.42079969 -97.77065151 953.40240839 -92.91455078 953.37011719 C-91.6196875 953.36560547 -90.32482422 953.36109375 -88.99072266 953.35644531 C-85.81944978 953.3447432 -82.64827532 953.32834831 -79.47705078 953.30761719 C-82.29499304 950.31855957 -85.15894795 948.83351606 -88.85205078 946.99511719 C-102.91989173 939.74564818 -116.47992972 930.62474601 -128.47705078 920.30761719 C-129.568724 919.39783263 -130.66124089 918.4890599 -131.75439453 917.58105469 C-165.73425527 889.15568395 -193.17015132 850.2596014 -198.47705078 805.30761719 C-198.79377446 799.99218276 -198.86784171 794.69257559 -198.85205078 789.37011719 C-198.85073654 788.28387558 -198.85073654 788.28387558 -198.84939575 787.1756897 C-198.80048513 774.87306149 -197.8434353 763.184825 -194.47705078 751.30761719 C-194.1309375 750.08292725 -194.1309375 750.08292725 -193.77783203 748.83349609 C-189.92888271 735.76692411 -184.02440662 723.99605289 -177.37573242 712.14501953 C-176.33059531 710.34908181 -176.33059531 710.34908181 -176.47705078 708.30761719 C-175.81705078 708.30761719 -175.15705078 708.30761719 -174.47705078 708.30761719 C-174.16767578 709.25636719 -173.85830078 710.20511719 -173.53955078 711.18261719 C-172.60310336 714.16842127 -172.60310336 714.16842127 -171.47705078 716.30761719 C-171.24438984 720.90267075 -171.71041715 725.07273957 -172.54492188 729.56005859 C-176.15592249 749.38588006 -176.23288477 770.66954918 -171.47705078 790.30761719 C-171.32139648 790.9858252 -171.16574219 791.6640332 -171.00537109 792.36279297 C-161.21816963 833.84607104 -130.03809026 866.86917696 -95.35205078 889.80761719 C-93.40741287 890.99697162 -91.44638952 892.15962525 -89.47705078 893.30761719 C-88.74873047 893.73510254 -88.02041016 894.16258789 -87.27001953 894.60302734 C-61.43047524 909.63370714 -30.76702244 924.80389173 -0.03955078 918.18261719 C16.23601163 913.31788297 28.2245743 901.81638883 36.52294922 887.30761719 C40.89731989 877.39889896 40.24274354 868.53783115 36.47070312 858.54736328 C33.93970139 852.56606242 30.87321969 846.80669709 27.85205078 841.06152344 C22.00417708 829.8147632 18.26417961 819.08285743 21.21435547 806.31542969 C23.26087382 800.13306045 26.29060646 795.2312426 30.52294922 790.30761719 C38.94932927 794.10240728 45.80207647 801.40866209 52.27294922 807.87011719 C52.79107178 808.38743408 53.30919434 808.90475098 53.84301758 809.43774414 C57.27500077 812.91871679 60.50763705 816.54283139 63.71044922 820.23461914 C76.9837628 835.41561397 90.33777033 849.22615698 108.52294922 858.30761719 C109.65410156 858.87996094 109.65410156 858.87996094 110.80810547 859.46386719 C118.76642415 862.77599982 130.87627916 862.83193749 139.02294922 860.30761719 C151.57621692 854.18475388 159.91360622 840.06168913 164.40185547 827.28027344 C165.95370184 822.06546052 167.09497677 816.75486221 168.21044922 811.43261719 C168.4131543 810.48410889 168.61585938 809.53560059 168.82470703 808.55834961 C172.82750117 788.07827725 173.09330618 766.7844793 174.12475586 745.99609375 C176.23037734 704.00770657 181.16498193 665.6130012 212.77294922 635.24511719 C246.654818 601.89576137 253.03802116 559.18068524 258.14794922 513.62011719 C258.57919593 509.8544962 259.01307258 506.08918529 259.44735718 502.32391357 C259.73056275 499.86050869 260.01153292 497.39684572 260.29019165 494.93292236 C260.9411105 489.20191711 261.6201097 483.47836267 262.38769531 477.76171875 C263.97460222 465.92683682 265.03220173 454.37587498 264.89794922 442.43261719 C264.89329651 441.67312775 264.8886438 440.91363831 264.8838501 440.13113403 C264.29964993 357.71718191 223.72855334 284.38231545 169.00732422 225.03808594 C167.10052413 222.94240471 165.24515613 220.82390345 163.39868164 218.67626953 C159.45119012 214.16144831 155.27197489 209.91234385 151.02685547 205.67871094 C150.23447983 204.88537857 149.44210419 204.0920462 148.62571716 203.27467346 C146.96044639 201.60872638 145.29392893 199.94402462 143.6262207 198.28051758 C141.092603 195.75225585 138.56436754 193.21870058 136.03662109 190.68457031 C134.40868639 189.05729649 132.78044147 187.43033293 131.15185547 185.80371094 C130.03273521 184.68155434 130.03273521 184.68155434 128.89100647 183.53672791 C124.8068619 179.47052428 120.63653099 175.56673186 116.26446533 171.8110199 C113.68396562 169.58334584 111.20496219 167.25617752 108.71044922 164.93261719 C104.05771415 160.6282468 99.24378533 156.59449682 94.30419922 152.62011719 C91.28273771 150.10789077 88.39875629 147.4833882 85.52294922 144.80761719 C80.9578201 140.56548212 76.26205681 136.55650713 71.40185547 132.65136719 C69.25752928 130.90564709 67.14649729 129.14071581 65.05029297 127.33886719 C64.46368896 126.83548828 63.87708496 126.33210938 63.27270508 125.81347656 C62.12850773 124.82876758 60.98726001 123.84061811 59.84936523 122.84863281 C57.40514442 120.75001732 55.61320189 119.33770141 52.52294922 118.30761719 C52.59223633 118.97664063 52.66152344 119.64566406 52.73291016 120.33496094 C53.58081341 129.32695991 53.76581932 138.28406435 53.77294922 147.30761719 C53.77396133 148.46580963 53.77396133 148.46580963 53.7749939 149.6473999 C53.7582446 161.74728117 53.26860603 173.47372825 50.52294922 185.30761719 C50.27351562 186.40662354 50.27351562 186.40662354 50.01904297 187.52783203 C45.86034257 205.10604251 37.7560604 221.54966788 22.53857422 232.12402344 C15.31496085 236.3657964 7.79981926 237.30084159 -0.47705078 236.30761719 C-8.55113931 234.01131678 -14.32092757 229.60673558 -18.66455078 222.49511719 C-23.62976431 212.85139537 -25.39742401 201.06761688 -24.47705078 190.30761719 C-24.39583984 189.3240625 -24.31462891 188.34050781 -24.23095703 187.32714844 C-23.39327592 179.96073615 -21.65067942 173.1457123 -19.53955078 166.05761719 C-9.87356191 133.19911319 -10.50589713 99.51061426 -26.72485352 68.84301758 C-30.8781961 61.34325212 -35.69531592 54.66025944 -41.47705078 48.30761719 C-42.12287109 47.58058594 -42.76869141 46.85355469 -43.43408203 46.10449219 C-53.40553791 35.46285699 -66.24496903 29.39677515 -80.75830078 28.10449219 C-114.58780479 27.38978436 -144.41259822 54.03512211 -165.53955078 77.81933594 Z M177.52294922 916.30761719 C176.58322266 917.20867188 175.64349609 918.10972656 174.67529297 919.03808594 C165.79409214 926.95886639 165.79409214 926.95886639 162.08544922 937.68261719 C162.18931889 939.22767853 162.33505159 940.77051018 162.52294922 942.30761719 C162.63123047 943.33822266 162.63123047 943.33822266 162.74169922 944.38964844 C163.97953947 951.97141997 167.98058016 958.59445624 171.52294922 965.30761719 C178.97816374 979.43603072 183.63646922 992.49327719 179.39794922 1008.74511719 C177.0635891 1015.36280791 172.60219362 1021.68901933 166.52294922 1025.30761719 C162.5644348 1026.47093571 159.59765324 1026.71361648 155.71044922 1025.24511719 C147.8016368 1018.24016904 148.64675953 1005.02073947 148.03125 995.18579102 C147.84175 991.89383593 147.67615132 988.60146232 147.52294922 985.30761719 C128.87385775 992.64152956 118.09818704 1032.24769738 110.52294922 1049.30761719 C110.07967285 1050.30245117 109.63639648 1051.29728516 109.1796875 1052.32226562 C97.82498945 1077.95570088 86.07581499 1109.66988664 89.52294922 1138.30761719 C90.54895585 1141.41941893 90.54895585 1141.41941893 92.52294922 1143.30761719 C97.10265276 1144.9279784 101.05660726 1143.89173847 105.52294922 1142.30761719 C112.23387924 1138.81651827 115.25148215 1134.38087115 117.52294922 1127.30761719 C119.04413742 1121.10491128 119.86924378 1114.84399441 120.5612793 1108.50317383 C122.02706817 1095.13462661 123.6248515 1083.01075759 132.52294922 1072.30761719 C136.24930612 1070.44443874 140.5439947 1071.55248713 144.52294922 1072.30761719 C149.36349818 1074.01032285 152.78095356 1075.86985782 155.52294922 1080.30761719 C155.91113281 1083.09741211 155.91113281 1083.09741211 155.92138672 1086.28808594 C155.92525391 1087.45275391 155.92912109 1088.61742187 155.93310547 1089.81738281 C155.92150391 1091.03103516 155.90990234 1092.2446875 155.89794922 1093.49511719 C155.90955078 1094.68943359 155.92115234 1095.88375 155.93310547 1097.11425781 C155.88890791 1110.49875044 155.88890791 1110.49875044 152.52294922 1116.30761719 C149.59716797 1118.90917969 149.59716797 1118.90917969 146.21044922 1120.93261719 C137.98585768 1126.14738233 132.26836283 1131.72167581 129.52294922 1141.30761719 C127.98380554 1150.87332321 131.04113868 1159.07733222 136.31982422 1167.00683594 C146.88019256 1180.79867699 161.20565864 1190.58019062 178.52294922 1193.30761719 C182.3325048 1193.81088989 186.14643284 1194.27704443 189.96044922 1194.74511719 C209.21370927 1197.12329809 222.79328601 1203.45129657 236.52294922 1217.30761719 C238.08069858 1220.42311591 238.08775544 1223.91205599 237.52294922 1227.30761719 C236.39404297 1229.03808594 236.39404297 1229.03808594 234.52294922 1230.30761719 C198.74819434 1235.52796768 156.15880107 1218.84157197 127.78320312 1198.03173828 C123.14371826 1194.55049789 118.54398103 1191.01143203 114.10888672 1187.27246094 C110.39183428 1184.0226221 110.39183428 1184.0226221 105.71044922 1183.49511719 C101.89023316 1186.66043906 100.80727678 1190.07113823 100.20263672 1194.82714844 C99.686034 1206.86399177 104.69217149 1216.43187571 112.52294922 1225.30761719 C152.60994751 1264.97137417 225.17456755 1273.62999072 278.31591797 1283.76855469 C279.37535614 1283.97164246 280.43479431 1284.17473022 281.52633667 1284.38397217 C286.69379038 1285.37353204 291.8630627 1286.34990125 297.03759766 1287.30175781 C298.90648238 1287.6549052 300.77530104 1288.00840244 302.64404297 1288.36230469 C303.5013652 1288.51508881 304.35868744 1288.66787292 305.24198914 1288.82528687 C306.02878555 1288.97656036 306.81558197 1289.12783386 307.6262207 1289.28369141 C308.31006332 1289.40976776 308.99390594 1289.53584412 309.69847107 1289.66574097 C311.98101122 1290.46876963 313.04453193 1291.40070406 314.52294922 1293.30761719 C314.89852881 1296.75043008 315.04248941 1299.24464991 313.50341797 1302.39355469 C310.60538336 1305.19441654 307.28930066 1305.71068569 303.46044922 1306.49511719 C302.68749512 1306.66237305 301.91454102 1306.82962891 301.11816406 1307.00195312 C295.5859409 1308.16577584 290.18258822 1309.11711041 284.52294922 1309.30761719 C283.24291016 1309.35917969 281.96287109 1309.41074219 280.64404297 1309.46386719 C261.44380129 1309.97276371 242.18326692 1307.38346086 223.41235352 1303.49023438 C217.40126029 1302.11232931 217.40126029 1302.11232931 211.52294922 1303.30761719 C209.3804289 1305.14188031 209.3804289 1305.14188031 208.52294922 1308.30761719 C208.60678465 1312.09405617 209.21398295 1315.76393849 209.83544922 1319.49511719 C212.71745496 1337.72409998 212.71745496 1337.72409998 210.52294922 1344.30761719 C195.42613257 1345.36704292 179.97914756 1338.22899525 165.90966797 1333.36572266 C143.44517382 1325.46595394 143.44517382 1325.46595394 120.14794922 1327.37011719 C117.22919056 1329.15391819 117.22919056 1329.15391819 116.27294922 1332.68261719 C116.18020354 1336.42969859 116.18020354 1336.42969859 118.77294922 1339.05761719 C119.68044922 1339.80011719 120.58794922 1340.54261719 121.52294922 1341.30761719 C123.79022642 1343.17002346 124.44243648 1344.05259599 125.33935547 1346.89355469 C125.5918695 1351.58924108 123.91751661 1354.44322527 121.71044922 1358.49511719 C121.34113281 1359.20603516 120.97181641 1359.91695312 120.59130859 1360.64941406 C119.01803386 1363.65191145 117.40641811 1366.48241385 115.52294922 1369.30761719 C114.87055787 1373.46661205 115.27858474 1374.95590688 117.71044922 1378.45605469 C119.10001997 1380.09177797 120.52651067 1381.68654441 121.96826172 1383.27636719 C124.54735013 1386.32706033 125.86692331 1388.47193381 126.02294922 1392.53417969 C125.52294922 1396.30761719 125.52294922 1396.30761719 124.44873047 1398.15527344 C121.6521907 1399.8286593 118.81451126 1400.75376753 115.71044922 1401.74511719 C115.05407471 1401.9582959 114.3977002 1402.17147461 113.72143555 1402.39111328 C107.9538395 1404.24032937 102.12170171 1405.81686231 96.25341797 1407.31542969 C93.22673769 1408.10997766 93.22673769 1408.10997766 91.52294922 1411.30761719 C90.87470513 1414.90897323 90.921845 1417.28994226 92.80810547 1420.48339844 C94.61353712 1422.86459417 96.52240203 1425.08820015 98.52294922 1427.30761719 C99.10173828 1427.99082031 99.68052734 1428.67402344 100.27685547 1429.37792969 C118.56329818 1449.52066356 148.80941655 1450.30940394 174.06396484 1452.46166992 C199.42537002 1454.65077505 222.31411056 1459.36064436 241.42919922 1477.38964844 C243.57230213 1479.4510215 243.57230213 1479.4510215 246.52294922 1481.30761719 C253.9477781 1474.65707214 261.11644739 1467.81922674 268.09350586 1460.69995117 C270.93648186 1457.81662175 273.79934973 1455.03892464 276.89672852 1452.42944336 C283.29093024 1446.86107423 289.19623229 1440.77802635 295.18310547 1434.78027344 C296.49997135 1433.46408258 297.81698552 1432.14804009 299.13414001 1430.83213806 C301.88328995 1428.08445575 304.63064041 1425.33499029 307.37670898 1422.58422852 C310.87884925 1419.07639156 314.38546073 1415.57306411 317.8934412 1412.07106876 C320.61059777 1409.35754313 323.32534665 1406.64161874 326.03939629 1403.92498589 C327.33072167 1402.63299823 328.62277694 1401.34173963 329.91560555 1400.05125618 C338.77218382 1391.24481312 338.77218382 1391.24481312 347.10411072 1381.94664001 C349.8928057 1378.72517772 352.98248056 1375.78891156 356.02294922 1372.80761719 C360.49894338 1368.37959958 364.85750438 1363.94206723 368.92138672 1359.12792969 C371.5025598 1356.19420614 374.31325613 1353.49612541 377.11669922 1350.77636719 C379.74205511 1348.08282023 382.18950356 1345.27083517 384.65380859 1342.43066406 C388.29984762 1338.28934283 392.12347757 1334.31283262 395.91748047 1330.30761719 C399.67194745 1326.32772672 403.32865813 1322.28292408 406.91552734 1318.15136719 C409.08016136 1315.668482 411.29851108 1313.23693778 413.52294922 1310.80761719 C418.54208443 1305.29862644 423.46415358 1299.72038202 428.30419922 1294.05371094 C429.33540752 1292.84664406 430.3666587 1291.63961381 431.39794922 1290.43261719 C431.91768311 1289.82401855 432.43741699 1289.21541992 432.97290039 1288.58837891 C436.00200517 1285.05118761 439.07451225 1281.56360665 442.21044922 1278.12011719 C445.96444098 1273.98333915 449.49441378 1269.70040487 453.00732422 1265.35839844 C455.9522018 1261.78704846 458.98021233 1258.29555776 462.02294922 1254.80761719 C466.54546771 1249.61893075 470.97839757 1244.37491699 475.31201172 1239.02636719 C477.87866512 1235.87019975 480.47850472 1232.74301465 483.08544922 1229.62011719 C483.52783936 1229.0900708 483.97022949 1228.56002441 484.42602539 1228.01391602 C485.45792588 1226.77814273 486.49037423 1225.54282694 487.52294922 1224.30761719 C486.21968193 1220.80120758 484.69803608 1217.74835854 482.64794922 1214.62011719 C482.15552734 1213.853125 481.66310547 1213.08613281 481.15576172 1212.29589844 C479.42100812 1210.18348317 478.03267418 1209.32345824 475.52294922 1208.30761719 C471.04487179 1211.21645381 466.6441422 1214.20152225 462.35107422 1217.37792969 C461.60913818 1217.92030273 460.86720215 1218.46267578 460.1027832 1219.02148438 C458.60685805 1220.11745452 457.11912206 1221.2247026 455.64038086 1222.34375 C452.35488103 1224.73525934 450.19597336 1226.20073879 446.12841797 1226.84667969 C443.52294922 1226.30761719 443.52294922 1226.30761719 441.52294922 1223.30761719 C441.00891023 1217.17819028 442.03138923 1212.77651866 444.46044922 1207.18261719 C444.77256348 1206.44906006 445.08467773 1205.71550293 445.40625 1204.9597168 C450.52945044 1193.34269021 457.55053749 1183.31080906 466.52294922 1174.30761719 C467.22291016 1173.58445312 467.92287109 1172.86128906 468.64404297 1172.11621094 C481.52141187 1159.64056239 498.44572043 1151.5056103 514.11987305 1143.09057617 C532.27563268 1133.29705398 546.31233237 1123.4936782 554.02294922 1103.49511719 C557.29264979 1092.45987777 556.82118128 1080.59433852 551.52294922 1070.30761719 C548.47979957 1064.98002095 545.09436886 1060.43304466 540.52294922 1056.30761719 C540.06919922 1055.85 539.61544922 1055.39238281 539.14794922 1054.92089844 C529.05801169 1045.31023294 514.74559466 1040.56675053 501.02294922 1039.93261719 C492.85271528 1040.25152966 484.73449649 1042.61183262 476.96044922 1044.99511719 C468.00604743 1047.49125574 458.87325366 1047.55601769 450.52294922 1043.30761719 C443.82471222 1038.79918844 440.54774131 1032.59757178 438.84326172 1024.77246094 C437.66427872 1015.70004299 437.06520513 1006.97796022 442.52294922 999.30761719 C446.42072035 996.45203085 450.05381271 995.59475596 454.77294922 994.74511719 C456.10759875 994.49128514 457.44223422 994.23737913 458.77685547 993.98339844 C460.96902206 993.58793981 463.16354078 993.20452336 465.36279297 992.85058594 C469.00479576 992.20217612 471.28111687 991.50914415 474.14794922 989.12011719 C476.00575147 985.32006712 475.42468225 983.42623036 474.52294922 979.30761719 C473.36322112 976.46578955 471.94455674 973.80444799 470.46044922 971.12011719 C470.05560303 970.3747168 469.65075684 969.62931641 469.23364258 968.86132812 C460.36769584 952.76787685 449.15695834 938.56417169 436.52294922 925.30761719 C435.75724609 924.47746094 434.99154297 923.64730469 434.20263672 922.79199219 C401.32427178 888.24184598 351.59068495 869.16708329 304.52294922 867.30761719 C303.60255859 867.26636719 302.68216797 867.22511719 301.73388672 867.18261719 C255.29389132 866.13608208 210.5378317 883.89159384 177.52294922 916.30761719 Z M519.21044922 1172.99511719 C518.0705957 1173.50461914 518.0705957 1173.50461914 516.90771484 1174.02441406 C511.72576751 1176.43305162 507.37362639 1179.04171631 504.46044922 1184.18261719 C504.56652892 1187.78932705 506.61553762 1190.3019989 508.52294922 1193.30761719 C512.37093712 1193.76172472 512.37093712 1193.76172472 513.99926758 1191.93408203 C514.44923096 1191.30195801 514.89919434 1190.66983398 515.36279297 1190.01855469 C515.86875 1189.32375 516.37470703 1188.62894531 516.89599609 1187.91308594 C517.41226562 1187.17703125 517.92853516 1186.44097656 518.46044922 1185.68261719 C519.48889493 1184.25184869 520.51882427 1182.82214539 521.55029297 1181.39355469 C522.29255127 1180.35473145 522.29255127 1180.35473145 523.04980469 1179.29492188 C524.43323951 1177.42863757 525.88470431 1175.66734359 527.40185547 1173.90917969 C529.73358457 1171.60871218 529.73358457 1171.60871218 529.52294922 1169.30761719 C525.82598581 1169.30761719 522.51535414 1171.45724581 519.21044922 1172.99511719 Z " fill="#B97D00" transform="translate(744.47705078125,25.6923828125)"/>
<path d="M0 0 C2.16923971 3.25385956 2.83145245 5.71746265 3.77734375 9.5 C4.12311938 10.85769059 4.46933162 12.21527004 4.81591797 13.57275391 C4.99781677 14.29247375 5.17971558 15.0121936 5.36712646 15.75372314 C10.18824641 34.74052651 15.8930272 53.3920178 22 72 C22.22194031 72.67913452 22.44388062 73.35826904 22.67254639 74.0579834 C35.91487709 114.54944851 52.64933746 153.51336944 71.40283203 191.74267578 C72.82669856 194.64656254 74.24059886 197.55505353 75.65234375 200.46484375 C81.3770153 212.18215506 87.65430136 223.54589105 94.17675781 234.83642578 C96.07625155 238.13230685 97.95579865 241.43913946 99.8359375 244.74609375 C110.69973895 263.74488624 122.65967246 281.93301317 135 300 C135.46961151 300.68843994 135.93922302 301.37687988 136.42306519 302.08618164 C141.77739934 309.92970952 147.15116113 317.74834402 152.8125 325.375 C153.39088623 326.15681641 153.96927246 326.93863281 154.56518555 327.74414062 C166.67799452 344.04488017 179.38351149 359.83601 192.54980469 375.29541016 C194.01803039 377.02119329 195.48173533 378.75074272 196.9453125 380.48046875 C202.7647057 387.33757592 208.71378335 394.0438491 214.85229492 400.61669922 C217.24260068 403.17922006 219.60787061 405.76329127 221.96685791 408.35470581 C229.14184651 416.20819706 236.60535675 423.75851063 244.13769531 431.26806641 C246.26484784 433.38981009 248.38653561 435.51691491 250.5078125 437.64453125 C251.88509583 439.0211544 253.26268899 440.39746766 254.640625 441.7734375 C255.261651 442.39648773 255.882677 443.01953796 256.52252197 443.66146851 C260.28033708 447.39958514 264.15312339 450.9519943 268.17112732 454.40924072 C271.12886968 456.98189444 273.9613752 459.6855857 276.8125 462.375 C281.75748862 467.00272311 286.81227238 471.39827818 292.1015625 475.6328125 C295.5753339 478.46988187 298.93998768 481.4190593 302.3125 484.375 C309.35080886 490.51284406 316.59160989 496.31740797 324 502 C324.78149414 502.60215332 325.56298828 503.20430664 326.36816406 503.82470703 C351.42759874 523.1215291 377.23523597 541.1456841 404 558 C400.32224212 559.22591929 399.53140743 558.66453284 396.0390625 557.18359375 C395.02505371 556.75643066 394.01104492 556.32926758 392.96630859 555.88916016 C391.86367676 555.4101123 390.76104492 554.93106445 389.625 554.4375 C387.89950928 553.6957251 387.89950928 553.6957251 386.13916016 552.93896484 C328.34782919 527.80857473 274.03072268 494.62491747 226.1015625 453.62890625 C223.175514 451.1327295 220.18643248 448.72073366 217.1875 446.3125 C213.25882578 443.11831705 209.62910728 439.78945732 206.14453125 436.1171875 C204.35957317 434.35498845 202.54866373 432.75171616 200.640625 431.12890625 C194.75912152 426.02105244 189.31412149 420.46317427 183.81811523 414.94848633 C181.94170525 413.06671726 180.06001031 411.19035262 178.17773438 409.31445312 C172.23787383 403.37788704 166.42531832 397.4169476 161 391 C159.54554483 389.39231627 158.08779105 387.78760285 156.625 386.1875 C151.89428498 380.93824117 147.42916306 375.50441004 143 370 C142.08625558 368.87864698 141.17217861 367.75756489 140.2578125 366.63671875 C86.15897032 300.04932418 46.06654736 221.88175935 0 0 Z " fill="#B97D00" transform="translate(168,644)"/>
<path d="M0 0 C3.55618125 1.5475974 6.09487665 3.69957194 9 6.25 C20.44441936 15.99498288 33.18406259 24.11017352 45.63082886 32.49905396 C111.41251959 76.83748716 111.41251959 76.83748716 119.25 106.1875 C122.78961288 124.75437849 116.81522367 141.49894684 107 157 C100.33498822 166.79897471 92.15024178 175.4372678 84 184 C79.36108044 181.77924064 75.88409142 179.32613712 73 175 C72.38685851 172.46025753 71.83630094 169.9327515 71.3125 167.375 C66.61898066 146.33291327 55.66369725 128.98292944 43.32958984 111.59375 C21.56299033 80.84213512 11.8727952 49.65191446 3.00390625 13.359375 C2.72164688 12.20461922 2.72164688 12.20461922 2.4336853 11.02653503 C1.5461853 7.36385084 0.70175483 3.70307108 0 0 Z " fill="#B97D00" transform="translate(692,457)"/>
<path d="M0 0 C0.91394531 0.62261719 1.82789063 1.24523438 2.76953125 1.88671875 C3.83171875 2.60988281 4.89390625 3.33304688 5.98828125 4.078125 C12.15134092 8.34446178 18.26904727 12.67488107 24.38085938 17.01416016 C26.52284194 18.53226891 28.66873621 20.04463816 30.81640625 21.5546875 C40.39249651 28.28921455 49.91119071 35.09946187 59.38330078 41.97949219 C61.59088212 43.58063824 63.80304856 45.17529748 66.015625 46.76953125 C67.39213067 47.7666461 68.76844211 48.76402915 70.14453125 49.76171875 C70.78213379 50.2194165 71.41973633 50.67711426 72.07666016 51.14868164 C76.46803908 54.3462344 76.46803908 54.3462344 77.58203125 56.57421875 C62.12141361 67.22021465 47.24650384 70.49791344 28.7109375 68.06640625 C17.32870592 65.66646796 6.42647286 61.4771878 -4.4675293 57.4597168 C-20.29647938 51.64332244 -33.68253255 49.5786747 -50.41796875 52.57421875 C-53.48708948 46.19044763 -53.48708948 46.19044763 -53.1875 43.51953125 C-52.29395758 41.26072858 -51.35576309 40.30384532 -49.54296875 38.69921875 C-46.04719851 35.36040146 -43.1140267 31.76506524 -40.16796875 27.94921875 C-12.62703428 -7.44566642 -12.62703428 -7.44566642 0 0 Z " fill="#B97D00" transform="translate(1081.41796875,1057.42578125)"/>
</svg>
