<?xml version="1.0" standalone="no"?>
<!DOCTYPE svg PUBLIC "-//W3C//DTD SVG 20010904//EN"
 "http://www.w3.org/TR/2001/REC-SVG-20010904/DTD/svg10.dtd">
<svg version="1.0" xmlns="http://www.w3.org/2000/svg"
 width="404.000000pt" height="402.000000pt" viewBox="0 0 404.000000 402.000000"
 preserveAspectRatio="xMidYMid meet">

<g transform="translate(0.000000,402.000000) scale(0.100000,-0.100000)"
fill="#000000" stroke="none">
<path d="M1461 4010 c-161 -9 -415 -36 -491 -51 -25 -5 -85 -16 -135 -24 -122
-20 -221 -58 -313 -117 -250 -164 -412 -432 -472 -783 -35 -206 -42 -409 -38
-1210 4 -653 7 -773 21 -850 102 -560 397 -799 1112 -904 548 -81 1197 -88
1805 -20 323 36 491 100 636 244 163 161 253 380 344 835 80 396 105 690 97
1104 -8 386 -39 619 -113 845 -137 419 -412 660 -897 786 -452 117 -1056 173
-1556 145z m704 -110 c691 -46 1164 -227 1416 -539 284 -351 388 -807 334
-1466 -46 -564 -129 -985 -243 -1240 -118 -263 -274 -371 -641 -445 -440 -89
-907 -110 -1466 -65 -476 37 -686 81 -900 186 -236 116 -391 315 -464 599 -60
232 -66 370 -52 1235 8 478 15 674 25 741 40 245 147 452 315 606 202 185 492
310 841 362 218 33 565 44 835 26z"/>
<path d="M3024 3471 c-141 -34 -218 -135 -218 -286 0 -67 4 -90 27 -140 16
-33 45 -77 65 -98 127 -133 356 -133 484 0 109 113 112 310 5 421 -85 89 -238
132 -363 103z m158 -141 c97 -36 143 -99 136 -185 -10 -124 -141 -190 -260
-132 -65 32 -99 80 -106 147 -6 63 2 91 35 131 51 60 109 72 195 39z"/>
<path d="M1737 3125 c-197 -38 -356 -118 -499 -254 -121 -113 -191 -230 -275
-458 -33 -90 -36 -109 -40 -233 -6 -155 10 -262 57 -392 139 -381 433 -617
878 -708 319 -64 631 -19 849 123 72 47 165 136 209 200 240 353 186 920 -123
1299 -158 194 -388 344 -620 404 -125 33 -319 41 -436 19z m363 -135 c93 -26
259 -104 350 -165 132 -88 277 -251 350 -395 86 -170 124 -346 117 -540 -5
-155 -30 -250 -94 -360 -185 -315 -627 -422 -1099 -264 -156 52 -268 118 -378
223 -156 150 -249 336 -277 553 -54 419 264 868 685 964 83 19 248 11 346 -16z"/>
</g>
</svg>
