<svg xmlns="http://www.w3.org/2000/svg" version="1.1" viewBox="151.83 152.53 900.01 892.66">
 <path d="m1049.4 639c-2.3984-26.398-7.1992-42-12.602-42-6 0-11.398 15.602-16.801 39.602-0.60156 3-1.1992 6-1.8008 9.6016-0.60156 3-1.8008 6.6016-2.3984 10.199-1.8008 7.1992-3.6016 14.398-5.3984 22.199-2.3984 16.199-9 32.398-13.199 50.398-11.398 36.602-26.398 72.602-48.602 103.8l-7.8008 12c-3 3.6016-6 7.1992-9 11.398-6 7.1992-12 15-18.602 22.199l-20.398 20.398-5.3984 4.8008-5.3984 4.1992-22.797 18c-3.6016 3-7.8008 5.3984-12 7.8008-8.3984 4.8008-16.199 10.801-24.602 15.602l-25.801 13.199c-4.1992 2.3984-8.3984 4.1992-13.199 6l-26.398 10.797c-4.8008 1.8008-9 3-13.801 4.1992-9.6016 2.3984-18.602 6-27.602 8.3984l-28.199 6c-9.6016 2.3984-19.199 2.3984-28.801 4.1992l-14.398 1.8008c-4.8008 0.60156-9.6016 0.60156-14.398 0.60156-9.6016 0-19.199 1.1992-29.398 0.60156l-29.398-1.1992c-9.6016 0-19.199-2.3984-28.801-3l-14.398-1.8008c-4.8008-0.60156-9.6016-1.8008-14.398-3-9.6016-2.3984-19.199-3.6016-28.199-6.6016l-27.602-8.3984c-9.6016-2.3984-18-7.1992-27-10.199-35.398-15-69.602-34.199-99-58.801l-11.398-9-10.199-10.199c-6.6016-6.6016-14.398-13.199-20.398-20.398l-18.602-22.199c-3-3.6016-6-7.8008-8.3984-11.398l-7.8008-12c-34.199-52.801-54.602-114.6-60.602-178.2-6-63.602-1.8008-129 16.801-189.6 18.602-60.602 52.801-115.8 97.801-160.2l8.3984-8.3984c3-3 6-4.8008 9-7.8008l18.602-15c6-5.3984 13.199-9 19.801-13.199 6.6016-4.1992 13.199-9 20.398-12.602l21-11.398c3.6016-1.8008 7.1992-3.6016 10.801-5.3984l10.801-4.8008 22.199-9c7.8008-2.3984 15-4.8008 22.801-7.1992 15-5.3984 31.199-8.3984 46.801-12 7.8008-1.8008 15.602-2.3984 24-3.6016 7.8008-1.1992 15.602-2.3984 24-3 31.801-1.8008 64.199-3 96 1.1992 32.398 3 63.602 10.801 94.199 20.398 7.8008 2.3984 15 6 22.801 8.3984 7.1992 3 15 5.3984 22.199 9.6016 14.398 7.1992 29.398 13.801 42.602 22.801 54.602 33.602 102 80.398 133.2 137.4 31.801 56.398 48.602 121.2 52.801 186 1.1992 17.398 4.1992 25.801 6.6016 25.801 2.3984 0 4.8008-9 4.1992-26.398-1.8008-66.602-16.801-133.8-48-194.4-1.8008-3.6016-3.6016-7.8008-6-11.398l-6.6016-10.801-13.801-21.602c-4.8008-7.1992-10.199-13.199-15.602-20.398-5.3984-6.6016-10.199-13.801-16.199-19.801l-27-27-9.6016-7.8008-19.801-16.199c-6.6016-4.8008-14.398-9.6016-21-14.398-13.801-10.199-29.398-17.398-44.398-25.199-7.1992-4.1992-15.602-7.1992-23.398-10.801-7.8008-3-15.602-6.6016-23.398-9.6016-32.398-10.801-65.398-20.398-99.602-24-33.602-5.3984-68.398-5.3984-102.6-3.6016-8.3984 0.60156-16.801 1.8008-25.801 3-8.3984 1.1992-17.398 1.8008-25.199 3.6016-16.801 3.6016-33.602 6-50.398 11.398-8.3984 2.3984-16.801 4.8008-24.602 7.1992l-36 14.402c-4.1992 1.8008-7.8008 3.6016-11.398 5.3984l-23.398 11.398c-7.8008 3.6016-15 9-22.199 13.199-7.1992 4.8008-15 9-21.602 14.398l-20.398 16.199c-3.6016 3-7.1992 5.3984-10.199 8.3984l-9.6016 9c-51 47.398-89.398 108.6-110.4 175.2-21 66.602-25.801 136.8-19.801 205.2 6.6016 69 28.199 137.4 66.602 196.2l9 13.199c3 4.1992 6 9 9.6016 13.199l20.398 24.602c6.6016 8.3984 15 15 22.199 22.801l11.398 11.398 12.602 10.199c32.398 27.602 70.199 48.602 109.2 64.801 10.199 3.6016 19.801 8.3984 29.398 11.398l30.602 9c10.199 3 20.398 4.8008 31.199 7.1992 5.3984 1.1992 10.199 2.3984 15.602 3l15.602 1.8008c10.801 1.1992 21 3 31.801 3.6016l31.801 1.1992c10.801 0 21-0.60156 31.801-1.1992 5.3984 0 10.801-0.60156 15.602-0.60156l15.602-1.8008c10.199-1.8008 21-2.3984 31.199-4.1992l31.199-6.6016c10.199-2.3984 20.398-6 30.602-9 4.8008-1.8008 10.199-3 15-4.8008l30-12c4.8008-1.8008 9.6016-4.1992 14.398-6.6016l28.199-14.398c9-5.3984 18-11.398 27-16.801 4.1992-3 9-5.3984 13.199-9l25.203-20.398 6-4.8008 6-5.3984 22.801-22.199c7.1992-7.8008 13.801-16.199 20.398-24.602 3.6016-4.1992 7.1992-8.3984 10.199-12.602l9-13.199c24.602-34.801 41.398-75 54-115.2 4.8008-19.801 10.199-38.398 10.801-55.801 0.60156-8.3984 1.1992-16.801 1.8008-24.602 0-3.6016 0.60156-7.8008 0.60156-11.398-2.4258-1.7891-2.4258-5.3867-2.4258-8.9883z"/>
 <path d="m816 807-1.8008-4.8008-14.398-39.602-9-21.602-15.602-36.602c-52.801-121.8-106.8-243-162-363-3.6016-7.8008-7.8008-10.801-9.6016-10.199-10.801-4.1992-31.199 21-45.602 56.398l-92.398 225-52.801 128.4c-3.6016 9-7.8008 19.199-11.398 27.602l-9 25.199-4.1992 12.602-3.5977 9c0 0.60156 0 0.60156 0.60156 0l0.60156-0.60156 1.8008-0.60156 24.602-12.602 24-12.602c8.3984-4.1992 16.801-9.6016 25.199-14.398l37.801-23.398c13.801-8.3984 28.199-16.801 42-24.602 13.801-7.1992 28.199-14.398 42-18.602l4.793 0.011719 4.8008-1.1992c3.6016-0.60156 6-0.60156 9-1.1992 3 0 6 0.60156 9 0.60156 3.6016 0.60156 6.6016 1.1992 10.199 2.3984 13.801 3.6016 28.199 10.199 42 17.398 14.398 7.1992 28.199 15 42.602 23.398l25.199 15c13.801 8.3984 27 16.199 39.602 22.801l37.199 18.602 9.6016 4.8008c1.1992 1.1992 0-0.60156 0-1.1992zm-68.398-75.602-3-1.8008-2.3984-1.8008-1.1992-0.60156-5.3984-3.6016-10.801-6.6016c-14.398-9-28.801-17.398-44.398-25.801-15.602-7.8008-31.199-15.602-49.801-21-4.8008-1.1992-9.6016-2.3984-14.398-3-5.3984-0.60156-10.199-1.1992-15.602-1.1992-5.3984 0-11.398 0.60156-15.602 1.8008l-7.1992 1.1992-6.6016 1.8008c-18 5.3984-34.199 13.199-49.199 21-15.602 7.8008-30 16.801-44.398 25.199l-13.801 8.3984 39.602-96.602 92.398-225c6.6016-16.199 10.801-31.801 12.602-44.398 43.801 119.4 88.801 238.8 135.6 357.6l2.3984 6 0.60156 1.1992v0.60156l0.60156 1.8008 0.60156 3v1.1992 0.60156z"/>
</svg>