<svg xmlns="http://www.w3.org/2000/svg" version="1.1" viewBox="210.34 149.99 779.66 900.28">
 <path d="m989.4 348.6v-18-9l-0.60156-10.801c-1.8008-13.801-4.8008-27.602-10.199-40.801-5.3984-12.602-12.602-24.602-21-35.398-17.398-21.602-39-38.398-63-49.199-6-3-12-5.3984-18.602-7.8008-6.6016-1.8008-12.602-4.1992-19.199-5.3984l-9.6016-2.3984c-3-0.60156-6-1.1992-9-1.8008l-18-3c-24-3.6016-48-6.6016-72-8.3984-79.199-7.1992-157.8-8.3984-237-4.1992-39.602 1.8008-78.602 5.3984-118.2 10.801-9.6016 1.1992-19.801 3-29.398 4.8008l-15.598 2.3906-15.602 3.6016c-20.398 6-40.199 15-58.199 27.602-17.398 12.602-33 28.199-44.398 47.398-11.398 18.602-18.602 40.199-19.199 62.398-0.60156 11.398 0 20.398 0 30.602l0.60156 29.398c0.60156 12 4.8008 24 10.801 34.199 6.6016 10.199 15 18 24.602 24 19.199 12 42.602 15.602 64.199 12l57.602-10.199 28.801-5.3984c10.801-1.8008 22.199-7.1992 29.398-17.398 3.6016-4.8008 6-10.801 6.6016-16.801v-4.8008-10.801l-1.1992-29.398c-0.60156-20.398-10.199-20.398-10.801 0l-0.60156 29.398v10.801c0 1.1992 0 1.8008-0.60156 3-0.60156 3.6016-2.3984 7.1992-4.8008 9.6016-4.8008 6-12 9-20.398 10.199l-28.801 3.6016-57.004 6.5977c-16.801 1.8008-34.199-2.3984-48-11.398s-22.199-23.398-22.199-38.398l0.60156-28.801c0-9.6016 0-20.398 1.1992-28.199 3-34.199 24-64.801 53.398-84 14.398-9.6016 30.602-16.801 48-21l13.199-2.3984 14.398-1.8008c9.6016-1.8008 19.199-2.3984 28.199-3.6016 38.398-4.1992 76.801-6.6016 115.2-8.3984 77.398-2.3984 154.8-0.60156 231.6 6 23.398 1.8008 46.801 4.8008 69.602 8.3984l17.398 3c3 0.60156 6 1.1992 8.3984 1.8008l7.8008 1.8008c5.3984 1.1992 10.199 3 15 4.1992 4.8008 1.8008 10.199 3.6016 14.398 6 19.199 9 36 21.602 48.602 37.801 6 7.8008 11.398 16.801 15 25.801s6 18.602 7.1992 28.801l0.60156 7.1992v8.3984 18c0 11.398 0.60156 25.801-0.60156 31.199-1.1992 7.1992-6 13.801-12 19.199-6 5.3984-14.398 9.6016-22.801 12-9 2.3984-17.398 2.3984-27 1.1992l-70.797-10.797-16.801-2.3984c-3-0.60156-5.3984-1.8008-7.8008-3.6016-1.8008-1.1992-3-3-3.6016-4.1992-0.60156-0.60156-0.60156-1.1992-1.1992-1.8008v-0.60156-1.8008l-0.60156-3.6016c-1.1992-9.6016-2.3984-18.602-4.8008-25.801-3.6016-15-9-24-14.398-24-6 0-10.801 9-14.398 24-1.8008 7.1992-3.6016 16.199-4.1992 26.398l-0.60156 3.6016v1.8008 3.6016c0 4.1992 1.1992 9 2.3984 13.199 3 9 9 16.199 16.199 21.602 7.1992 6 16.199 9.6016 24.602 11.398l3 0.60156 2.3984 0.60156 4.1992 0.60156 9 1.1992 70.797 10.797c13.801 2.3984 29.398 1.8008 43.801-1.8008 14.398-3.6016 28.199-10.801 40.199-21 11.398-10.199 21-24.602 24.602-40.801 1.8008-7.8008 1.8008-17.398 1.8008-22.199z"/>
 <path d="m483 305.4c28.801-5.3984 59.398-7.8008 89.398-8.3984 49.801-1.1992 99.602-4.1992 150-3.6016 3.6016 0 5.3984-9 2.3984-10.199-48.602-21-101.4-28.801-153.6-27.602-31.801 0.60156-63.602 3.6016-96 9.6016-7.8008 1.8008-12 12-9.6016 22.801 3.6055 11.398 10.805 19.199 17.406 17.398z"/>
 <path d="m954 899.4-2.3984-19.199-5.3984-39-21.602-156c-4.1992-27-10.801-54-22.199-79.199-22.801-50.398-60-94.801-106.8-124.8-46.199-31.199-102.6-47.398-158.4-48.602l-79.203-1.1992c-28.199 0-56.398 4.1992-83.398 11.398s-52.801 19.801-76.801 34.199c-24 15-45.602 33-64.199 54.602-18.602 21-34.199 45-46.199 70.801-12 25.801-19.199 53.398-24 81l-30 190.2-3.6016 24c-1.1992 7.1992-3 17.398-2.3984 27.602 0 19.801 5.3984 39 15 55.801 18.602 34.199 52.801 57 88.801 65.398 9 1.8008 18.602 3.6016 27.602 3.6016 4.8008 0.60156 9 0 12.602 0h348.59c61.199 0 110.4-9 110.4-20.398 0-11.398-49.801-20.398-110.4-20.398l-192.6-0.003906h-156.6-11.398c-6.6016 0-13.199-1.1992-19.801-2.3984-26.398-6-49.801-22.199-61.801-45-6-11.398-9.6016-23.398-9.6016-36 0-10.801 3.6016-28.801 6-44.398l30-190.2c4.1992-24.602 10.801-48 20.398-70.199 10.199-22.199 24-42.602 39.602-61.199 15.602-18.602 34.801-34.199 55.199-47.398 20.398-13.199 42.602-24 66.602-30.602 23.398-6.6016 48-10.801 72.602-10.801l78.602-0.60156c49.199 0 98.398 13.199 140.4 39.602 42.602 25.801 76.199 64.199 98.398 108.6 10.801 22.801 17.398 46.199 22.199 71.398l27.602 154.8 7.1992 39 3.6016 19.199c0.60156 3 1.1992 6.6016 1.8008 9.6016l1.1992 9c1.1992 24-7.1992 48-24 66-16.199 18-39 31.199-64.199 35.398-6.6016 1.1992-11.398 2.3984-14.398 3.6016-3.6016 1.1992-4.8008 2.3984-4.8008 3.6016 0 1.1992 1.8008 2.3984 5.3984 3 3.6016 0.60156 9 1.1992 16.199 0 27-3.6016 53.398-16.199 72.602-36 19.801-19.801 31.801-48 31.199-76.801l-0.60156-10.801c-2.3984-3.6016-3-6.6016-3-10.203z"/>
 <path d="m735 730.8c-5.3984 0-11.398 4.8008-15 11.398-2.3984 3.6016-4.8008 7.1992-6 11.398-2.3984 4.1992-3.6016 9-5.3984 13.801-3.6016 10.199-8.3984 20.398-14.398 29.398s-13.801 16.801-22.199 24c-8.3984 6.6016-18 12.602-28.199 17.398-10.199 4.1992-20.398 7.8008-31.801 8.3984-10.801 1.1992-22.199 1.1992-33-0.60156-10.801-1.1992-21.602-4.8008-31.199-9.6016-19.801-9-37.199-24-49.199-42.602-19.801-30-25.199-69-13.801-103.8 6-17.398 15-33 27.602-46.199 12.602-13.199 28.801-23.398 45.602-30 34.801-13.199 76.199-9 108.6 10.801 33 20.398 57 55.801 61.199 96.602 1.793 6.6094 4.793 9.6094 7.1914 9.6094s4.8008-3 4.8008-8.3984c0-21.602-4.8008-44.398-15-64.199s-25.199-37.801-43.199-51.602c-36.602-27.602-87.602-37.199-133.2-22.801-22.801 7.1992-43.801 19.199-61.199 35.398s-30.602 37.199-39 60c-16.801 45.602-10.199 98.398 16.199 139.2 16.199 24.602 39.602 45 66.602 57 13.199 6 27.602 10.801 42.602 12.602 14.398 2.3984 29.398 2.3984 44.398 0.60156 15-1.8008 28.801-6 42.602-12s26.398-13.801 37.801-23.398c11.398-9.6016 21.602-20.398 30-33 7.8008-12.602 15-25.801 19.801-39.602 2.3984-6.6016 3-13.199 3.6016-19.199 0-6-0.60156-12-2.3984-16.199-3.6094-9.6016-9.0117-14.402-14.41-14.402z"/>
</svg>