<svg xmlns="http://www.w3.org/2000/svg" version="1.1" viewBox="150.97 307.8 901.44 584.41">
 <path d="m1050 811.2c-0.60156-15-1.8008-29.398-2.3984-43.199v-340.8c0-54-9-98.398-20.398-98.398 0-2.3984-3-4.8008-8.3984-5.3984-166.2-10.199-333.6-15.602-501-15.602h-306c-24 0-43.801 9-43.801 20.398-2.3984 0-4.8008 6-5.3984 18.602-3 93-7.8008 186-10.199 279.6-1.1992 46.801-1.8008 93.602-1.1992 140.4 0 23.398 1.8008 47.398 1.1992 69v12.602c0 4.8008 1.1992 9.6016 3.6016 13.801 2.3984 4.1992 6.6016 7.1992 11.398 9 2.3984 1.1992 4.8008 1.8008 7.1992 3l4.8008 1.8008c3 1.1992 4.8008 1.8008 7.8008 3.6016 3.6016 1.1992 6.6016 3 10.199 3.6016 3 0.60156 6.6016 1.8008 10.199 2.3984l9.6016 1.8008c25.801 3 49.801 1.8008 73.199 0.60156 23.398-1.8008 46.801-4.1992 69-4.8008l139.8 1.1992c93.602 0.60156 187.2 0.60156 280.8 1.1992h107.4 9.6016l10.199 0.60156c13.801 1.1992 28.199 3 42.602 4.1992 14.398 1.1992 29.398 1.8008 45 1.8008 4.1992 0 7.8008 0 12-0.60156 1.8008 0 4.1992-0.60156 6.6016-0.60156 2.3984-0.60156 4.1992-0.60156 7.1992-1.8008l9.6016-4.1992c3-1.8008 6-3.6016 8.3984-6 1.8008-3 4.8008-5.3984 6-8.3984 1.8008-3 3.6016-6 4.1992-9.6016 0.60156-3 1.1992-5.3984 1.8008-7.1992 0.60156-2.3984 0.60156-4.8008 1.1992-6.6016 0.60156-4.1992 0.60156-8.3984 0.60156-12-2.4141-9.0039-2.4141-16.203-2.4141-24.004zm-142.2 33.602-11.398-1.1992c-3.6016-0.60156-9-0.60156-12-0.60156h-107.4c-93.602 0.60156-187.2 0.60156-280.8 1.1992l-70.199 0.60156-34.801 0.60156h-36c-24.602 1.1992-47.398 4.8008-70.801 6.6016-22.801 2.3984-45.602 3.6016-66.602 1.8008l-3-0.60156c2.3984-1.8008 4.8008-3 7.1992-4.8008l265.2-192.6c13.199 13.199 26.398 26.398 40.199 39 8.3984 7.1992 17.398 14.398 27 21.602 4.8008 3.6016 10.199 6.6016 16.199 9.6016 3 1.8008 6.6016 3 10.199 4.1992l3 0.60156 4.1992 1.1992 7.8008 0.60156c4.1992-0.60156 8.3984-1.1992 12-3 1.8008-0.60156 4.1992-1.1992 5.3984-2.3984l4.1992-2.3984c4.1992-3 8.3984-6 12-9 7.1992-6 13.801-12 19.801-18.602l18-18.602c3-3 6-6 7.8008-7.8008l9.6016-8.3984 14.398-12.602c32.398 22.199 64.801 45 97.199 67.199 65.398 45 131.4 88.801 198 132.6-1.8008 0-3.6016 0-5.3984 0.60156-12.602 0.60156-26.398-0.60156-40.199-1.8008-12.594-0.60547-26.395-1.8047-40.793-3.6055zm-736.8-507c7.1992 7.1992 22.199 12 39.602 12h306c167.4 0 334.8-5.3984 501-15.602h1.8008c-8.3984 13.199-14.398 49.801-14.398 93v171l-0.003906 85.801v87.004c0.60156 15 1.8008 28.801 2.3984 42.602 0 6.6016 0.60156 13.801 0 19.801 0 3-0.60156 6-0.60156 9v1.8008c-63-51-127.2-100.8-191.4-150.6-28.801-22.199-57.602-44.398-87-66l243.6-207c22.801-19.199 35.398-42 27.602-50.398-7.1992-8.3984-31.801 0-54.602 19.199l-285 242.39-9.6016 8.3984c-4.1992 3.6016-7.1992 7.1992-10.801 10.199l-18 18c-6 6-12 11.398-17.398 16.199-3 2.3984-5.3984 4.8008-8.3984 6.6016l-1.1992 0.60156h-0.60156c-1.1992-0.60156-3-1.1992-4.8008-1.8008-3.6016-1.8008-7.8008-4.1992-11.398-6.6016-7.8008-5.3984-16.199-11.398-24-18-15.602-13.199-31.199-27.602-46.199-42l-45-45c-15-15-29.398-30.602-47.398-45.602-66-54.602-132.6-108.6-199.2-161.4-10.801-8.3984-16.801-1.1992-7.1992 7.8008 61.195 59.402 123 118.8 186 177 14.398 13.199 28.199 30 42.602 45.602 7.1992 7.8008 14.398 16.199 22.199 24l-261 189.6c-6 4.1992-11.398 9-16.199 13.801-0.60156-22.199-2.3984-42-3-63-2.3984-46.199-3.6016-93-4.1992-139.2-1.2031-93.605-1.2031-186.61-3.0039-279.61-0.59766-4.1992-0.59766-7.1992-1.1992-9.5977z"/>
</svg>